<svg width="386" height="172" viewBox="0 0 386 172" fill="none" xmlns="http://www.w3.org/2000/svg">
<g filter="url(#filter0_d_19_621)">
<path d="M6 34C6 16.3269 20.3269 2 38 2H348C365.673 2 380 16.3269 380 34V130C380 147.673 365.673 162 348 162H18C11.3726 162 6 156.627 6 150V34Z" fill="#F7F3FF"/>
<path d="M34.3718 37L31.293 26.0909H33.4183L35.3839 34.1076H35.4851L37.5838 26.0909H39.5174L41.6214 34.1129H41.7173L43.6829 26.0909H45.8082L42.7294 37H40.7798L38.5959 29.3455H38.5107L36.3214 37H34.3718ZM49.8272 37.1598C49.0282 37.1598 48.3358 36.984 47.7498 36.6325C47.1639 36.2809 46.7093 35.7891 46.3862 35.157C46.0666 34.5249 45.9068 33.7862 45.9068 32.9411C45.9068 32.0959 46.0666 31.3555 46.3862 30.7198C46.7093 30.0842 47.1639 29.5906 47.7498 29.239C48.3358 28.8874 49.0282 28.7116 49.8272 28.7116C50.6262 28.7116 51.3187 28.8874 51.9047 29.239C52.4906 29.5906 52.9434 30.0842 53.263 30.7198C53.5861 31.3555 53.7477 32.0959 53.7477 32.9411C53.7477 33.7862 53.5861 34.5249 53.263 35.157C52.9434 35.7891 52.4906 36.2809 51.9047 36.6325C51.3187 36.984 50.6262 37.1598 49.8272 37.1598ZM49.8379 35.6151C50.2711 35.6151 50.6333 35.4961 50.9245 35.2582C51.2157 35.0167 51.4324 34.6935 51.5744 34.2887C51.72 33.8839 51.7928 33.4329 51.7928 32.9357C51.7928 32.435 51.72 31.9822 51.5744 31.5774C51.4324 31.169 51.2157 30.8441 50.9245 30.6026C50.6333 30.3612 50.2711 30.2404 49.8379 30.2404C49.394 30.2404 49.0247 30.3612 48.7299 30.6026C48.4387 30.8441 48.2203 31.169 48.0748 31.5774C47.9327 31.9822 47.8617 32.435 47.8617 32.9357C47.8617 33.4329 47.9327 33.8839 48.0748 34.2887C48.2203 34.6935 48.4387 35.0167 48.7299 35.2582C49.0247 35.4961 49.394 35.6151 49.8379 35.6151ZM60.5992 33.5589V28.8182H62.5274V37H60.6578V35.5458H60.5725C60.3879 36.0039 60.0843 36.3786 59.6617 36.6697C59.2426 36.9609 58.7259 37.1065 58.1116 37.1065C57.5754 37.1065 57.1013 36.9876 56.6894 36.7496C56.281 36.5082 55.9614 36.1584 55.7306 35.7003C55.4997 35.2386 55.3843 34.6811 55.3843 34.0277V28.8182H57.3126V33.7294C57.3126 34.2479 57.4546 34.6598 57.7387 34.9652C58.0228 35.2706 58.3957 35.4233 58.8573 35.4233C59.1414 35.4233 59.4166 35.354 59.683 35.2156C59.9493 35.0771 60.1677 34.8711 60.3382 34.5977C60.5122 34.3207 60.5992 33.9744 60.5992 33.5589ZM66.4386 26.0909V37H64.5103V26.0909H66.4386ZM71.4577 37.1438C70.8149 37.1438 70.2396 36.9787 69.7318 36.6484C69.224 36.3182 68.8227 35.8388 68.528 35.2102C68.2332 34.5817 68.0858 33.8182 68.0858 32.9197C68.0858 32.0107 68.235 31.2436 68.5333 30.6186C68.8351 29.9901 69.2417 29.516 69.7531 29.1964C70.2645 28.8732 70.8344 28.7116 71.463 28.7116C71.9424 28.7116 72.3366 28.7933 72.6455 28.9567C72.9545 29.1165 73.1995 29.31 73.3806 29.5373C73.5617 29.761 73.702 29.9723 73.8014 30.1712H73.8813V26.0909H75.8149V37H73.9186V35.7109H73.8014C73.702 35.9098 73.5582 36.1211 73.3699 36.3448C73.1817 36.565 72.9331 36.7532 72.6242 36.9094C72.3153 37.0657 71.9264 37.1438 71.4577 37.1438ZM71.9957 35.5618C72.404 35.5618 72.752 35.4517 73.0397 35.2315C73.3273 35.0078 73.5457 34.6971 73.6949 34.2994C73.844 33.9016 73.9186 33.4382 73.9186 32.9091C73.9186 32.38 73.844 31.9201 73.6949 31.5295C73.5493 31.1388 73.3327 30.8352 73.045 30.6186C72.7609 30.402 72.4111 30.2937 71.9957 30.2937C71.566 30.2937 71.2073 30.4055 70.9197 30.6293C70.632 30.853 70.4154 31.1619 70.2698 31.5561C70.1242 31.9503 70.0514 32.4013 70.0514 32.9091C70.0514 33.4205 70.1242 33.8768 70.2698 34.2781C70.4189 34.6758 70.6373 34.9901 70.925 35.2209C71.2162 35.4482 71.5731 35.5618 71.9957 35.5618ZM82.7889 40.0682C82.5261 40.0682 82.2828 40.0469 82.0591 40.0043C81.839 39.9652 81.6632 39.919 81.5318 39.8658L81.9792 38.3636C82.2598 38.4453 82.5101 38.4844 82.7303 38.4808C82.9505 38.4773 83.144 38.408 83.3109 38.2731C83.4814 38.1417 83.6252 37.9215 83.7424 37.6126L83.9075 37.1705L80.9405 28.8182H82.986L84.8716 34.9972H84.9569L86.8478 28.8182H88.8986L85.6227 37.9908C85.47 38.424 85.2676 38.7951 85.0154 39.104C84.7633 39.4165 84.4544 39.6545 84.0886 39.8178C83.7264 39.9847 83.2931 40.0682 82.7889 40.0682ZM93.5235 37.1598C92.7245 37.1598 92.032 36.984 91.4461 36.6325C90.8602 36.2809 90.4056 35.7891 90.0825 35.157C89.7629 34.5249 89.6031 33.7862 89.6031 32.9411C89.6031 32.0959 89.7629 31.3555 90.0825 30.7198C90.4056 30.0842 90.8602 29.5906 91.4461 29.239C92.032 28.8874 92.7245 28.7116 93.5235 28.7116C94.3225 28.7116 95.015 28.8874 95.6009 29.239C96.1869 29.5906 96.6396 30.0842 96.9593 30.7198C97.2824 31.3555 97.444 32.0959 97.444 32.9411C97.444 33.7862 97.2824 34.5249 96.9593 35.157C96.6396 35.7891 96.1869 36.2809 95.6009 36.6325C95.015 36.984 94.3225 37.1598 93.5235 37.1598ZM93.5342 35.6151C93.9674 35.6151 94.3296 35.4961 94.6208 35.2582C94.912 35.0167 95.1286 34.6935 95.2707 34.2887C95.4163 33.8839 95.4891 33.4329 95.4891 32.9357C95.4891 32.435 95.4163 31.9822 95.2707 31.5774C95.1286 31.169 94.912 30.8441 94.6208 30.6026C94.3296 30.3612 93.9674 30.2404 93.5342 30.2404C93.0903 30.2404 92.721 30.3612 92.4262 30.6026C92.135 30.8441 91.9166 31.169 91.771 31.5774C91.629 31.9822 91.558 32.435 91.558 32.9357C91.558 33.4329 91.629 33.8839 91.771 34.2887C91.9166 34.6935 92.135 35.0167 92.4262 35.2582C92.721 35.4961 93.0903 35.6151 93.5342 35.6151ZM104.295 33.5589V28.8182H106.224V37H104.354V35.5458H104.269C104.084 36.0039 103.781 36.3786 103.358 36.6697C102.939 36.9609 102.422 37.1065 101.808 37.1065C101.272 37.1065 100.798 36.9876 100.386 36.7496C99.9773 36.5082 99.6577 36.1584 99.4268 35.7003C99.196 35.2386 99.0806 34.6811 99.0806 34.0277V28.8182H101.009V33.7294C101.009 34.2479 101.151 34.6598 101.435 34.9652C101.719 35.2706 102.092 35.4233 102.554 35.4233C102.838 35.4233 103.113 35.354 103.379 35.2156C103.646 35.0771 103.864 34.8711 104.034 34.5977C104.208 34.3207 104.295 33.9744 104.295 33.5589ZM113.856 26.0909V37H111.927V26.0909H113.856ZM115.838 37V28.8182H117.767V37H115.838ZM116.808 27.657C116.502 27.657 116.24 27.5558 116.02 27.3533C115.799 27.1474 115.689 26.9006 115.689 26.6129C115.689 26.3217 115.799 26.0749 116.02 25.8725C116.24 25.6665 116.502 25.5636 116.808 25.5636C117.117 25.5636 117.38 25.6665 117.596 25.8725C117.816 26.0749 117.926 26.3217 117.926 26.6129C117.926 26.9006 117.816 27.1474 117.596 27.3533C117.38 27.5558 117.117 27.657 116.808 27.657ZM121.507 34.4325L121.502 32.1048H121.811L124.751 28.8182H127.005L123.388 32.8452H122.988L121.507 34.4325ZM119.75 37V26.0909H121.678V37H119.75ZM124.884 37L122.221 33.2766L123.521 31.9183L127.191 37H124.884ZM131.575 37.1598C130.755 37.1598 130.046 36.9893 129.449 36.6484C128.856 36.304 128.4 35.8175 128.081 35.1889C127.761 34.5568 127.601 33.8129 127.601 32.957C127.601 32.1154 127.761 31.3768 128.081 30.7411C128.404 30.1019 128.855 29.6048 129.434 29.2496C130.012 28.891 130.692 28.7116 131.474 28.7116C131.978 28.7116 132.454 28.7933 132.901 28.9567C133.352 29.1165 133.75 29.3651 134.094 29.7024C134.442 30.0398 134.716 30.4695 134.915 30.9915C135.114 31.5099 135.213 32.1278 135.213 32.8452V33.4364H128.507V32.1367H133.365C133.361 31.7674 133.281 31.4389 133.125 31.1513C132.969 30.8601 132.75 30.631 132.47 30.4641C132.193 30.2972 131.87 30.2138 131.5 30.2138C131.106 30.2138 130.76 30.3097 130.462 30.5014C130.163 30.6896 129.931 30.9382 129.764 31.2472C129.6 31.5526 129.517 31.8881 129.513 32.2539V33.3885C129.513 33.8643 129.6 34.2727 129.774 34.6136C129.948 34.951 130.192 35.2102 130.504 35.3913C130.817 35.5689 131.182 35.6577 131.601 35.6577C131.882 35.6577 132.136 35.6186 132.363 35.5405C132.59 35.4588 132.788 35.3398 132.954 35.1836C133.121 35.0273 133.247 34.8338 133.333 34.603L135.133 34.8054C135.019 35.2812 134.803 35.6967 134.483 36.0518C134.167 36.4034 133.762 36.6768 133.269 36.8722C132.775 37.0639 132.21 37.1598 131.575 37.1598ZM144.651 28.8182V30.3097H139.947V28.8182H144.651ZM141.108 26.858H143.037V34.5391C143.037 34.7983 143.076 34.9972 143.154 35.1357C143.235 35.2706 143.342 35.3629 143.473 35.4126C143.605 35.4624 143.75 35.4872 143.91 35.4872C144.031 35.4872 144.141 35.4783 144.24 35.4606C144.343 35.4428 144.422 35.4268 144.475 35.4126L144.8 36.9201C144.697 36.9556 144.549 36.9947 144.358 37.0373C144.169 37.0799 143.939 37.1048 143.665 37.1119C143.182 37.1261 142.747 37.0533 142.36 36.8935C141.973 36.7301 141.666 36.478 141.439 36.1371C141.215 35.7962 141.105 35.37 141.108 34.8587V26.858ZM149.744 37.1598C148.945 37.1598 148.253 36.984 147.667 36.6325C147.081 36.2809 146.626 35.7891 146.303 35.157C145.984 34.5249 145.824 33.7862 145.824 32.9411C145.824 32.0959 145.984 31.3555 146.303 30.7198C146.626 30.0842 147.081 29.5906 147.667 29.239C148.253 28.8874 148.945 28.7116 149.744 28.7116C150.543 28.7116 151.236 28.8874 151.822 29.239C152.408 29.5906 152.86 30.0842 153.18 30.7198C153.503 31.3555 153.665 32.0959 153.665 32.9411C153.665 33.7862 153.503 34.5249 153.18 35.157C152.86 35.7891 152.408 36.2809 151.822 36.6325C151.236 36.984 150.543 37.1598 149.744 37.1598ZM149.755 35.6151C150.188 35.6151 150.55 35.4961 150.842 35.2582C151.133 35.0167 151.349 34.6935 151.491 34.2887C151.637 33.8839 151.71 33.4329 151.71 32.9357C151.71 32.435 151.637 31.9822 151.491 31.5774C151.349 31.169 151.133 30.8441 150.842 30.6026C150.55 30.3612 150.188 30.2404 149.755 30.2404C149.311 30.2404 148.942 30.3612 148.647 30.6026C148.356 30.8441 148.137 31.169 147.992 31.5774C147.85 31.9822 147.779 32.435 147.779 32.9357C147.779 33.4329 147.85 33.8839 147.992 34.2887C148.137 34.6935 148.356 35.0167 148.647 35.2582C148.942 35.4961 149.311 35.6151 149.755 35.6151ZM156.489 37.1172C156.166 37.1172 155.889 37.0036 155.658 36.7763C155.427 36.549 155.314 36.272 155.317 35.9453C155.314 35.6257 155.427 35.3523 155.658 35.125C155.889 34.8977 156.166 34.7841 156.489 34.7841C156.802 34.7841 157.073 34.8977 157.304 35.125C157.539 35.3523 157.657 35.6257 157.661 35.9453C157.657 36.1619 157.601 36.359 157.491 36.5366C157.384 36.7141 157.242 36.8562 157.064 36.9627C156.89 37.0657 156.699 37.1172 156.489 37.1172ZM156.489 31.2791C156.166 31.2791 155.889 31.1655 155.658 30.9382C155.427 30.7074 155.314 30.4304 155.317 30.1072C155.314 29.7876 155.427 29.5142 155.658 29.2869C155.889 29.0561 156.166 28.9407 156.489 28.9407C156.802 28.9407 157.073 29.0561 157.304 29.2869C157.539 29.5142 157.657 29.7876 157.661 30.1072C157.657 30.3203 157.601 30.5156 157.491 30.6932C157.384 30.8707 157.242 31.0128 157.064 31.1193C156.89 31.2259 156.699 31.2791 156.489 31.2791ZM42.25 78.9972C41.8203 78.9972 41.4279 78.8924 41.0728 78.6829C40.7177 78.4698 40.4336 78.1857 40.2205 77.8306C40.011 77.4755 39.9062 77.0831 39.9062 76.6534C39.9062 76.2202 40.011 75.8278 40.2205 75.4762C40.4336 75.1211 40.7177 74.8388 41.0728 74.6293C41.4279 74.4162 41.8203 74.3097 42.25 74.3097C42.6832 74.3097 43.0756 74.4162 43.4272 74.6293C43.7823 74.8388 44.0646 75.1211 44.2741 75.4762C44.4872 75.8278 44.5938 76.2202 44.5938 76.6534C44.5938 77.0831 44.4872 77.4755 44.2741 77.8306C44.0646 78.1857 43.7823 78.4698 43.4272 78.6829C43.0756 78.8924 42.6832 78.9972 42.25 78.9972ZM60.7869 72.8182C60.723 72.2784 60.4638 71.8594 60.0092 71.5611C59.5547 71.2628 58.9972 71.1136 58.3366 71.1136C57.8537 71.1136 57.4311 71.1918 57.0689 71.348C56.7102 71.5043 56.4297 71.7191 56.2273 71.9925C56.0284 72.266 55.929 72.5767 55.929 72.9247C55.929 73.2159 55.9982 73.4663 56.1367 73.6758C56.2788 73.8817 56.4599 74.054 56.68 74.1925C56.9002 74.3274 57.131 74.4393 57.3725 74.5281C57.614 74.6133 57.8359 74.6825 58.0384 74.7358L59.1463 75.0341C59.4304 75.1087 59.7464 75.2116 60.0945 75.343C60.446 75.4744 60.7816 75.6538 61.1012 75.881C61.4244 76.1048 61.6907 76.3924 61.9002 76.744C62.1097 77.0955 62.2145 77.527 62.2145 78.0384C62.2145 78.6278 62.06 79.1605 61.7511 79.6364C61.4457 80.1122 60.9982 80.4904 60.4087 80.771C59.8228 81.0515 59.1108 81.1918 58.2727 81.1918C57.4915 81.1918 56.815 81.0657 56.2433 80.8136C55.6751 80.5614 55.2276 80.2099 54.9009 79.7589C54.5778 79.3079 54.3949 78.7841 54.3523 78.1875H55.7159C55.7514 78.5994 55.8899 78.9403 56.1314 79.2102C56.3764 79.4766 56.6854 79.6754 57.0582 79.8068C57.4347 79.9347 57.8395 79.9986 58.2727 79.9986C58.777 79.9986 59.2298 79.9169 59.631 79.7536C60.0323 79.5866 60.3501 79.3558 60.5845 79.0611C60.8189 78.7628 60.9361 78.4148 60.9361 78.017C60.9361 77.6548 60.8349 77.3601 60.6325 77.1328C60.43 76.9055 60.1637 76.7209 59.8335 76.5788C59.5032 76.4368 59.1463 76.3125 58.7628 76.206L57.4205 75.8224C56.5682 75.5774 55.8935 75.2276 55.3963 74.7731C54.8991 74.3185 54.6506 73.7237 54.6506 72.9886C54.6506 72.3778 54.8157 71.8452 55.146 71.3906C55.4798 70.9325 55.9272 70.5774 56.4883 70.3253C57.0529 70.0696 57.6832 69.9418 58.3793 69.9418C59.0824 69.9418 59.7074 70.0678 60.2543 70.32C60.8011 70.5685 61.2344 70.9094 61.554 71.3427C61.8771 71.7759 62.0476 72.2678 62.0653 72.8182H60.7869ZM69.3722 77.6548V72.8182H70.6294V81H69.3722V79.6151H69.287C69.0953 80.0305 68.797 80.3839 68.3921 80.6751C67.9873 80.9627 67.4759 81.1065 66.858 81.1065C66.3467 81.1065 65.8921 80.9947 65.4944 80.771C65.0967 80.5437 64.7842 80.2028 64.5569 79.7482C64.3296 79.2901 64.216 78.7131 64.216 78.017V72.8182H65.4731V77.9318C65.4731 78.5284 65.64 79.0043 65.9738 79.3594C66.3112 79.7145 66.7409 79.892 67.2629 79.892C67.5754 79.892 67.8932 79.8121 68.2164 79.6523C68.5431 79.4925 68.8165 79.2475 69.0367 78.9173C69.2604 78.587 69.3722 78.1662 69.3722 77.6548ZM72.9318 81V72.8182H74.1463V74.0966H74.2528C74.4233 73.6598 74.6985 73.3207 75.0785 73.0792C75.4585 72.8342 75.9148 72.7116 76.4474 72.7116C76.9872 72.7116 77.4364 72.8342 77.7951 73.0792C78.1573 73.3207 78.4396 73.6598 78.642 74.0966H78.7273C78.9368 73.674 79.2511 73.3384 79.6701 73.0898C80.0891 72.8377 80.5916 72.7116 81.1776 72.7116C81.9091 72.7116 82.5075 72.9407 82.9727 73.3988C83.4379 73.8533 83.6705 74.5618 83.6705 75.5241V81H82.4134V75.5241C82.4134 74.9205 82.2482 74.489 81.918 74.2298C81.5877 73.9705 81.1989 73.8409 80.7514 73.8409C80.1761 73.8409 79.7305 74.0149 79.4144 74.3629C79.0984 74.7074 78.9403 75.1442 78.9403 75.6733V81H77.6619V75.3963C77.6619 74.9311 77.511 74.5565 77.2092 74.2724C76.9073 73.9847 76.5185 73.8409 76.0426 73.8409C75.7159 73.8409 75.4105 73.9279 75.1264 74.1019C74.8459 74.2759 74.6186 74.5174 74.4446 74.8263C74.2741 75.1317 74.1889 75.4851 74.1889 75.8864V81H72.9318ZM85.9689 81V72.8182H87.1834V74.0966H87.29C87.4604 73.6598 87.7356 73.3207 88.1156 73.0792C88.4956 72.8342 88.9519 72.7116 89.4846 72.7116C90.0243 72.7116 90.4735 72.8342 90.8322 73.0792C91.1944 73.3207 91.4767 73.6598 91.6792 74.0966H91.7644C91.9739 73.674 92.2882 73.3384 92.7072 73.0898C93.1262 72.8377 93.6287 72.7116 94.2147 72.7116C94.9462 72.7116 95.5446 72.9407 96.0098 73.3988C96.475 73.8533 96.7076 74.5618 96.7076 75.5241V81H95.4505V75.5241C95.4505 74.9205 95.2853 74.489 94.9551 74.2298C94.6248 73.9705 94.236 73.8409 93.7885 73.8409C93.2132 73.8409 92.7676 74.0149 92.4515 74.3629C92.1355 74.7074 91.9775 75.1442 91.9775 75.6733V81H90.699V75.3963C90.699 74.9311 90.5481 74.5565 90.2463 74.2724C89.9444 73.9847 89.5556 73.8409 89.0797 73.8409C88.753 73.8409 88.4476 73.9279 88.1635 74.1019C87.883 74.2759 87.6557 74.5174 87.4817 74.8263C87.3113 75.1317 87.226 75.4851 87.226 75.8864V81H85.9689ZM101.414 81.1918C100.895 81.1918 100.425 81.0941 100.002 80.8988C99.5795 80.6999 99.244 80.4141 98.9954 80.0412C98.7468 79.6648 98.6225 79.2102 98.6225 78.6776C98.6225 78.2088 98.7148 77.8288 98.8995 77.5376C99.0842 77.2429 99.331 77.0121 99.6399 76.8452C99.9489 76.6783 100.29 76.554 100.663 76.4723C101.039 76.3871 101.417 76.3196 101.797 76.2699C102.294 76.206 102.697 76.158 103.006 76.1261C103.319 76.0906 103.546 76.032 103.688 75.9503C103.834 75.8686 103.907 75.7266 103.907 75.5241V75.4815C103.907 74.956 103.763 74.5476 103.475 74.2564C103.191 73.9652 102.76 73.8196 102.181 73.8196C101.581 73.8196 101.11 73.951 100.769 74.2138C100.428 74.4766 100.189 74.7571 100.05 75.0554L98.8569 74.6293C99.07 74.1321 99.354 73.745 99.7092 73.468C100.068 73.1875 100.458 72.9922 100.881 72.8821C101.307 72.7685 101.726 72.7116 102.138 72.7116C102.401 72.7116 102.703 72.7436 103.044 72.8075C103.388 72.8679 103.72 72.994 104.04 73.1857C104.363 73.3775 104.631 73.6669 104.844 74.054C105.057 74.4411 105.164 74.9595 105.164 75.6094V81H103.907V79.892H103.843C103.757 80.0696 103.615 80.2596 103.417 80.462C103.218 80.6644 102.953 80.8366 102.623 80.9787C102.293 81.1207 101.89 81.1918 101.414 81.1918ZM101.605 80.0625C102.103 80.0625 102.522 79.9648 102.863 79.7695C103.207 79.5742 103.466 79.3221 103.64 79.0131C103.818 78.7042 103.907 78.3793 103.907 78.0384V76.8878C103.853 76.9517 103.736 77.0103 103.555 77.0636C103.377 77.1133 103.172 77.1577 102.937 77.1967C102.706 77.2322 102.481 77.2642 102.261 77.2926C102.044 77.3175 101.868 77.3388 101.733 77.3565C101.407 77.3991 101.101 77.4684 100.817 77.5643C100.537 77.6566 100.309 77.7969 100.135 77.9851C99.9648 78.1697 99.8796 78.4219 99.8796 78.7415C99.8796 79.1783 100.041 79.5085 100.364 79.7322C100.691 79.9524 101.105 80.0625 101.605 80.0625ZM107.458 81V72.8182H108.673V74.054H108.758C108.907 73.6491 109.177 73.3207 109.568 73.0685C109.958 72.8164 110.399 72.6903 110.889 72.6903C110.981 72.6903 111.096 72.6921 111.235 72.6957C111.373 72.6992 111.478 72.7045 111.549 72.7116V73.9901C111.506 73.9794 111.409 73.9634 111.256 73.9421C111.107 73.9173 110.949 73.9048 110.782 73.9048C110.384 73.9048 110.029 73.9883 109.717 74.1552C109.408 74.3185 109.163 74.5458 108.982 74.837C108.804 75.1246 108.715 75.4531 108.715 75.8224V81H107.458ZM113.039 81V72.8182H114.296V81H113.039ZM113.678 71.4545C113.433 71.4545 113.222 71.3711 113.045 71.2042C112.871 71.0373 112.784 70.8366 112.784 70.6023C112.784 70.3679 112.871 70.1673 113.045 70.0004C113.222 69.8335 113.433 69.75 113.678 69.75C113.923 69.75 114.133 69.8335 114.307 70.0004C114.485 70.1673 114.573 70.3679 114.573 70.6023C114.573 70.8366 114.485 71.0373 114.307 71.2042C114.133 71.3711 113.923 71.4545 113.678 71.4545ZM116.364 81V80.0412L121.009 74.0753V73.9901H116.514V72.8182H122.629V73.8196L118.112 79.7429V79.8281H122.778V81H116.364ZM127.91 81.1705C127.122 81.1705 126.442 80.9964 125.87 80.6484C125.302 80.2969 124.863 79.8068 124.554 79.1783C124.249 78.5462 124.096 77.8111 124.096 76.973C124.096 76.1349 124.249 75.3963 124.554 74.7571C124.863 74.1143 125.293 73.6136 125.843 73.255C126.397 72.8928 127.044 72.7116 127.782 72.7116C128.208 72.7116 128.629 72.7827 129.045 72.9247C129.46 73.0668 129.838 73.2976 130.179 73.6172C130.52 73.9332 130.792 74.3523 130.994 74.8743C131.197 75.3963 131.298 76.0391 131.298 76.8026V77.3352H124.991V76.2486H130.019C130.019 75.7869 129.927 75.375 129.742 75.0128C129.561 74.6506 129.302 74.3647 128.965 74.1552C128.631 73.9457 128.237 73.8409 127.782 73.8409C127.282 73.8409 126.848 73.9652 126.483 74.2138C126.12 74.4588 125.842 74.7784 125.646 75.1726C125.451 75.5668 125.353 75.9893 125.353 76.4403V77.1648C125.353 77.7827 125.46 78.3065 125.673 78.7362C125.889 79.1623 126.19 79.4872 126.573 79.7109C126.957 79.9311 127.402 80.0412 127.91 80.0412C128.24 80.0412 128.539 79.995 128.805 79.9027C129.075 79.8068 129.307 79.6648 129.503 79.4766C129.698 79.2848 129.849 79.0469 129.956 78.7628L131.17 79.1037C131.042 79.5156 130.827 79.8778 130.525 80.1903C130.224 80.4993 129.851 80.7408 129.407 80.9148C128.963 81.0852 128.464 81.1705 127.91 81.1705ZM140.987 72.8182V73.8835H136.747V72.8182H140.987ZM137.983 70.858H139.24V78.6562C139.24 79.0114 139.291 79.2777 139.394 79.4553C139.501 79.6293 139.636 79.7464 139.799 79.8068C139.966 79.8636 140.142 79.892 140.327 79.892C140.465 79.892 140.579 79.8849 140.668 79.8707C140.756 79.853 140.827 79.8388 140.881 79.8281L141.136 80.9574C141.051 80.9893 140.932 81.0213 140.779 81.0533C140.627 81.0888 140.433 81.1065 140.199 81.1065C139.844 81.1065 139.496 81.0302 139.155 80.8775C138.817 80.7248 138.537 80.4922 138.313 80.1797C138.093 79.8672 137.983 79.473 137.983 78.9972V70.858ZM144.311 76.0781V81H143.054V70.0909H144.311V74.0966H144.418C144.609 73.674 144.897 73.3384 145.28 73.0898C145.668 72.8377 146.182 72.7116 146.825 72.7116C147.383 72.7116 147.871 72.8235 148.29 73.0472C148.709 73.2674 149.034 73.6065 149.265 74.0646C149.499 74.5192 149.616 75.098 149.616 75.8011V81H148.359V75.8864C148.359 75.2365 148.191 74.734 147.853 74.3789C147.519 74.0202 147.056 73.8409 146.463 73.8409C146.051 73.8409 145.682 73.9279 145.355 74.1019C145.032 74.2759 144.776 74.5298 144.588 74.8636C144.403 75.1974 144.311 75.6023 144.311 76.0781ZM155.347 81.1705C154.558 81.1705 153.878 80.9964 153.306 80.6484C152.738 80.2969 152.3 79.8068 151.991 79.1783C151.685 78.5462 151.533 77.8111 151.533 76.973C151.533 76.1349 151.685 75.3963 151.991 74.7571C152.3 74.1143 152.729 73.6136 153.28 73.255C153.834 72.8928 154.48 72.7116 155.219 72.7116C155.645 72.7116 156.066 72.7827 156.481 72.9247C156.897 73.0668 157.275 73.2976 157.616 73.6172C157.957 73.9332 158.228 74.3523 158.431 74.8743C158.633 75.3963 158.734 76.0391 158.734 76.8026V77.3352H152.428V76.2486H157.456C157.456 75.7869 157.364 75.375 157.179 75.0128C156.998 74.6506 156.739 74.3647 156.401 74.1552C156.067 73.9457 155.673 73.8409 155.219 73.8409C154.718 73.8409 154.285 73.9652 153.919 74.2138C153.557 74.4588 153.278 74.7784 153.083 75.1726C152.887 75.5668 152.79 75.9893 152.79 76.4403V77.1648C152.79 77.7827 152.896 78.3065 153.109 78.7362C153.326 79.1623 153.626 79.4872 154.01 79.7109C154.393 79.9311 154.839 80.0412 155.347 80.0412C155.677 80.0412 155.975 79.995 156.241 79.9027C156.511 79.8068 156.744 79.6648 156.939 79.4766C157.135 79.2848 157.286 79.0469 157.392 78.7628L158.607 79.1037C158.479 79.5156 158.264 79.8778 157.962 80.1903C157.66 80.4993 157.287 80.7408 156.843 80.9148C156.4 81.0852 155.901 81.1705 155.347 81.1705ZM164.865 81V72.8182H166.08V74.0966H166.186C166.357 73.6598 166.632 73.3207 167.012 73.0792C167.392 72.8342 167.848 72.7116 168.381 72.7116C168.921 72.7116 169.37 72.8342 169.729 73.0792C170.091 73.3207 170.373 73.6598 170.576 74.0966H170.661C170.87 73.674 171.185 73.3384 171.604 73.0898C172.023 72.8377 172.525 72.7116 173.111 72.7116C173.843 72.7116 174.441 72.9407 174.906 73.3988C175.371 73.8533 175.604 74.5618 175.604 75.5241V81H174.347V75.5241C174.347 74.9205 174.182 74.489 173.852 74.2298C173.521 73.9705 173.132 73.8409 172.685 73.8409C172.11 73.8409 171.664 74.0149 171.348 74.3629C171.032 74.7074 170.874 75.1442 170.874 75.6733V81H169.596V75.3963C169.596 74.9311 169.445 74.5565 169.143 74.2724C168.841 73.9847 168.452 73.8409 167.976 73.8409C167.65 73.8409 167.344 73.9279 167.06 74.1019C166.779 74.2759 166.552 74.5174 166.378 74.8263C166.208 75.1317 166.123 75.4851 166.123 75.8864V81H164.865ZM180.31 81.1918C179.792 81.1918 179.321 81.0941 178.899 80.8988C178.476 80.6999 178.14 80.4141 177.892 80.0412C177.643 79.6648 177.519 79.2102 177.519 78.6776C177.519 78.2088 177.611 77.8288 177.796 77.5376C177.981 77.2429 178.227 77.0121 178.536 76.8452C178.845 76.6783 179.186 76.554 179.559 76.4723C179.936 76.3871 180.314 76.3196 180.694 76.2699C181.191 76.206 181.594 76.158 181.903 76.1261C182.215 76.0906 182.443 76.032 182.585 75.9503C182.73 75.8686 182.803 75.7266 182.803 75.5241V75.4815C182.803 74.956 182.659 74.5476 182.372 74.2564C182.088 73.9652 181.656 73.8196 181.077 73.8196C180.477 73.8196 180.007 73.951 179.666 74.2138C179.325 74.4766 179.085 74.7571 178.947 75.0554L177.753 74.6293C177.966 74.1321 178.251 73.745 178.606 73.468C178.964 73.1875 179.355 72.9922 179.778 72.8821C180.204 72.7685 180.623 72.7116 181.035 72.7116C181.297 72.7116 181.599 72.7436 181.94 72.8075C182.285 72.8679 182.617 72.994 182.936 73.1857C183.259 73.3775 183.528 73.6669 183.741 74.054C183.954 74.4411 184.06 74.9595 184.06 75.6094V81H182.803V79.892H182.739C182.654 80.0696 182.512 80.2596 182.313 80.462C182.114 80.6644 181.85 80.8366 181.519 80.9787C181.189 81.1207 180.786 81.1918 180.31 81.1918ZM180.502 80.0625C180.999 80.0625 181.418 79.9648 181.759 79.7695C182.104 79.5742 182.363 79.3221 182.537 79.0131C182.714 78.7042 182.803 78.3793 182.803 78.0384V76.8878C182.75 76.9517 182.633 77.0103 182.452 77.0636C182.274 77.1133 182.068 77.1577 181.834 77.1967C181.603 77.2322 181.377 77.2642 181.157 77.2926C180.941 77.3175 180.765 77.3388 180.63 77.3565C180.303 77.3991 179.998 77.4684 179.714 77.5643C179.433 77.6566 179.206 77.7969 179.032 77.9851C178.861 78.1697 178.776 78.4219 178.776 78.7415C178.776 79.1783 178.938 79.5085 179.261 79.7322C179.588 79.9524 180.001 80.0625 180.502 80.0625ZM186.355 81V72.8182H187.612V81H186.355ZM186.994 71.4545C186.749 71.4545 186.538 71.3711 186.36 71.2042C186.186 71.0373 186.099 70.8366 186.099 70.6023C186.099 70.3679 186.186 70.1673 186.36 70.0004C186.538 69.8335 186.749 69.75 186.994 69.75C187.239 69.75 187.448 69.8335 187.622 70.0004C187.8 70.1673 187.889 70.3679 187.889 70.6023C187.889 70.8366 187.8 71.0373 187.622 71.2042C187.448 71.3711 187.239 71.4545 186.994 71.4545ZM191.171 76.0781V81H189.914V72.8182H191.129V74.0966H191.235C191.427 73.6811 191.718 73.3473 192.109 73.0952C192.499 72.8395 193.004 72.7116 193.622 72.7116C194.176 72.7116 194.66 72.8253 195.076 73.0526C195.491 73.2763 195.814 73.6172 196.045 74.0753C196.276 74.5298 196.392 75.1051 196.392 75.8011V81H195.134V75.8864C195.134 75.2436 194.968 74.7429 194.634 74.3842C194.3 74.022 193.842 73.8409 193.259 73.8409C192.858 73.8409 192.499 73.9279 192.183 74.1019C191.871 74.2759 191.624 74.5298 191.443 74.8636C191.262 75.1974 191.171 75.6023 191.171 76.0781ZM206.466 72.8182V73.8835H202.226V72.8182H206.466ZM203.461 70.858H204.718V78.6562C204.718 79.0114 204.77 79.2777 204.873 79.4553C204.979 79.6293 205.114 79.7464 205.278 79.8068C205.445 79.8636 205.62 79.892 205.805 79.892C205.944 79.892 206.057 79.8849 206.146 79.8707C206.235 79.853 206.306 79.8388 206.359 79.8281L206.615 80.9574C206.53 80.9893 206.411 81.0213 206.258 81.0533C206.105 81.0888 205.912 81.1065 205.677 81.1065C205.322 81.1065 204.974 81.0302 204.633 80.8775C204.296 80.7248 204.015 80.4922 203.792 80.1797C203.571 79.8672 203.461 79.473 203.461 78.9972V70.858ZM209.79 76.0781V81H208.532V70.0909H209.79V74.0966H209.896C210.088 73.674 210.375 73.3384 210.759 73.0898C211.146 72.8377 211.661 72.7116 212.304 72.7116C212.861 72.7116 213.35 72.8235 213.769 73.0472C214.188 73.2674 214.513 73.6065 214.743 74.0646C214.978 74.5192 215.095 75.098 215.095 75.8011V81H213.838V75.8864C213.838 75.2365 213.669 74.734 213.332 74.3789C212.998 74.0202 212.535 73.8409 211.941 73.8409C211.53 73.8409 211.16 73.9279 210.834 74.1019C210.51 74.2759 210.255 74.5298 210.066 74.8636C209.882 75.1974 209.79 75.6023 209.79 76.0781ZM220.825 81.1705C220.037 81.1705 219.357 80.9964 218.785 80.6484C218.217 80.2969 217.778 79.8068 217.469 79.1783C217.164 78.5462 217.011 77.8111 217.011 76.973C217.011 76.1349 217.164 75.3963 217.469 74.7571C217.778 74.1143 218.208 73.6136 218.758 73.255C219.312 72.8928 219.959 72.7116 220.697 72.7116C221.123 72.7116 221.544 72.7827 221.96 72.9247C222.375 73.0668 222.753 73.2976 223.094 73.6172C223.435 73.9332 223.707 74.3523 223.909 74.8743C224.112 75.3963 224.213 76.0391 224.213 76.8026V77.3352H217.906V76.2486H222.934C222.934 75.7869 222.842 75.375 222.657 75.0128C222.476 74.6506 222.217 74.3647 221.88 74.1552C221.546 73.9457 221.152 73.8409 220.697 73.8409C220.197 73.8409 219.763 73.9652 219.398 74.2138C219.035 74.4588 218.757 74.7784 218.561 75.1726C218.366 75.5668 218.268 75.9893 218.268 76.4403V77.1648C218.268 77.7827 218.375 78.3065 218.588 78.7362C218.805 79.1623 219.105 79.4872 219.488 79.7109C219.872 79.9311 220.317 80.0412 220.825 80.0412C221.155 80.0412 221.454 79.995 221.72 79.9027C221.99 79.8068 222.222 79.6648 222.418 79.4766C222.613 79.2848 222.764 79.0469 222.871 78.7628L224.085 79.1037C223.957 79.5156 223.742 79.8778 223.441 80.1903C223.139 80.4993 222.766 80.7408 222.322 80.9148C221.878 81.0852 221.379 81.1705 220.825 81.1705ZM226.125 81V72.8182H227.34V74.0966H227.446C227.617 73.6598 227.892 73.3207 228.272 73.0792C228.652 72.8342 229.108 72.7116 229.641 72.7116C230.181 72.7116 230.63 72.8342 230.988 73.0792C231.351 73.3207 231.633 73.6598 231.835 74.0966H231.921C232.13 73.674 232.444 73.3384 232.863 73.0898C233.282 72.8377 233.785 72.7116 234.371 72.7116C235.102 72.7116 235.701 72.9407 236.166 73.3988C236.631 73.8533 236.864 74.5618 236.864 75.5241V81H235.607V75.5241C235.607 74.9205 235.442 74.489 235.111 74.2298C234.781 73.9705 234.392 73.8409 233.945 73.8409C233.369 73.8409 232.924 74.0149 232.608 74.3629C232.292 74.7074 232.134 75.1442 232.134 75.6733V81H230.855V75.3963C230.855 74.9311 230.704 74.5565 230.403 74.2724C230.101 73.9847 229.712 73.8409 229.236 73.8409C228.909 73.8409 228.604 73.9279 228.32 74.1019C228.039 74.2759 227.812 74.5174 227.638 74.8263C227.468 75.1317 227.382 75.4851 227.382 75.8864V81H226.125ZM242.593 81.1705C241.804 81.1705 241.124 80.9964 240.553 80.6484C239.984 80.2969 239.546 79.8068 239.237 79.1783C238.931 78.5462 238.779 77.8111 238.779 76.973C238.779 76.1349 238.931 75.3963 239.237 74.7571C239.546 74.1143 239.975 73.6136 240.526 73.255C241.08 72.8928 241.726 72.7116 242.465 72.7116C242.891 72.7116 243.312 72.7827 243.727 72.9247C244.143 73.0668 244.521 73.2976 244.862 73.6172C245.203 73.9332 245.474 74.3523 245.677 74.8743C245.879 75.3963 245.98 76.0391 245.98 76.8026V77.3352H239.674V76.2486H244.702C244.702 75.7869 244.61 75.375 244.425 75.0128C244.244 74.6506 243.985 74.3647 243.647 74.1552C243.314 73.9457 242.919 73.8409 242.465 73.8409C241.964 73.8409 241.531 73.9652 241.165 74.2138C240.803 74.4588 240.524 74.7784 240.329 75.1726C240.134 75.5668 240.036 75.9893 240.036 76.4403V77.1648C240.036 77.7827 240.142 78.3065 240.355 78.7362C240.572 79.1623 240.872 79.4872 241.256 79.7109C241.639 79.9311 242.085 80.0412 242.593 80.0412C242.923 80.0412 243.221 79.995 243.488 79.9027C243.757 79.8068 243.99 79.6648 244.185 79.4766C244.381 79.2848 244.532 79.0469 244.638 78.7628L245.853 79.1037C245.725 79.5156 245.51 79.8778 245.208 80.1903C244.906 80.4993 244.533 80.7408 244.089 80.9148C243.646 81.0852 243.147 81.1705 242.593 81.1705ZM42.25 104.997C41.8203 104.997 41.4279 104.892 41.0728 104.683C40.7177 104.47 40.4336 104.186 40.2205 103.831C40.011 103.475 39.9062 103.083 39.9062 102.653C39.9062 102.22 40.011 101.828 40.2205 101.476C40.4336 101.121 40.7177 100.839 41.0728 100.629C41.4279 100.416 41.8203 100.31 42.25 100.31C42.6832 100.31 43.0756 100.416 43.4272 100.629C43.7823 100.839 44.0646 101.121 44.2741 101.476C44.4872 101.828 44.5938 102.22 44.5938 102.653C44.5938 103.083 44.4872 103.475 44.2741 103.831C44.0646 104.186 43.7823 104.47 43.4272 104.683C43.0756 104.892 42.6832 104.997 42.25 104.997ZM60.7869 98.8182C60.723 98.2784 60.4638 97.8594 60.0092 97.5611C59.5547 97.2628 58.9972 97.1136 58.3366 97.1136C57.8537 97.1136 57.4311 97.1918 57.0689 97.348C56.7102 97.5043 56.4297 97.7191 56.2273 97.9925C56.0284 98.266 55.929 98.5767 55.929 98.9247C55.929 99.2159 55.9982 99.4663 56.1367 99.6758C56.2788 99.8817 56.4599 100.054 56.68 100.192C56.9002 100.327 57.131 100.439 57.3725 100.528C57.614 100.613 57.8359 100.683 58.0384 100.736L59.1463 101.034C59.4304 101.109 59.7464 101.212 60.0945 101.343C60.446 101.474 60.7816 101.654 61.1012 101.881C61.4244 102.105 61.6907 102.392 61.9002 102.744C62.1097 103.096 62.2145 103.527 62.2145 104.038C62.2145 104.628 62.06 105.161 61.7511 105.636C61.4457 106.112 60.9982 106.49 60.4087 106.771C59.8228 107.051 59.1108 107.192 58.2727 107.192C57.4915 107.192 56.815 107.066 56.2433 106.814C55.6751 106.561 55.2276 106.21 54.9009 105.759C54.5778 105.308 54.3949 104.784 54.3523 104.188H55.7159C55.7514 104.599 55.8899 104.94 56.1314 105.21C56.3764 105.477 56.6854 105.675 57.0582 105.807C57.4347 105.935 57.8395 105.999 58.2727 105.999C58.777 105.999 59.2298 105.917 59.631 105.754C60.0323 105.587 60.3501 105.356 60.5845 105.061C60.8189 104.763 60.9361 104.415 60.9361 104.017C60.9361 103.655 60.8349 103.36 60.6325 103.133C60.43 102.906 60.1637 102.721 59.8335 102.579C59.5032 102.437 59.1463 102.312 58.7628 102.206L57.4205 101.822C56.5682 101.577 55.8935 101.228 55.3963 100.773C54.8991 100.319 54.6506 99.7237 54.6506 98.9886C54.6506 98.3778 54.8157 97.8452 55.146 97.3906C55.4798 96.9325 55.9272 96.5774 56.4883 96.3253C57.0529 96.0696 57.6832 95.9418 58.3793 95.9418C59.0824 95.9418 59.7074 96.0678 60.2543 96.32C60.8011 96.5685 61.2344 96.9094 61.554 97.3427C61.8771 97.7759 62.0476 98.2678 62.0653 98.8182H60.7869ZM65.4731 102.078V107H64.216V96.0909H65.4731V100.097H65.5796C65.7714 99.674 66.059 99.3384 66.4426 99.0898C66.8296 98.8377 67.3445 98.7116 67.9873 98.7116C68.5448 98.7116 69.0331 98.8235 69.4521 99.0472C69.8712 99.2674 70.1961 99.6065 70.4269 100.065C70.6613 100.519 70.7785 101.098 70.7785 101.801V107H69.5214V101.886C69.5214 101.237 69.3527 100.734 69.0154 100.379C68.6816 100.02 68.2181 99.8409 67.6251 99.8409C67.2132 99.8409 66.8438 99.9279 66.5171 100.102C66.194 100.276 65.9383 100.53 65.7501 100.864C65.5654 101.197 65.4731 101.602 65.4731 102.078ZM76.4022 107.17C75.6635 107.17 75.0154 106.995 74.4579 106.643C73.9039 106.292 73.4707 105.8 73.1582 105.168C72.8493 104.536 72.6948 103.797 72.6948 102.952C72.6948 102.099 72.8493 101.355 73.1582 100.72C73.4707 100.084 73.9039 99.5906 74.4579 99.239C75.0154 98.8874 75.6635 98.7116 76.4022 98.7116C77.1408 98.7116 77.7871 98.8874 78.3411 99.239C78.8986 99.5906 79.3319 100.084 79.6408 100.72C79.9533 101.355 80.1096 102.099 80.1096 102.952C80.1096 103.797 79.9533 104.536 79.6408 105.168C79.3319 105.8 78.8986 106.292 78.3411 106.643C77.7871 106.995 77.1408 107.17 76.4022 107.17ZM76.4022 106.041C76.9632 106.041 77.4249 105.897 77.7871 105.61C78.1493 105.322 78.4174 104.944 78.5914 104.475C78.7654 104.006 78.8525 103.499 78.8525 102.952C78.8525 102.405 78.7654 101.895 78.5914 101.423C78.4174 100.951 78.1493 100.569 77.7871 100.278C77.4249 99.9865 76.9632 99.8409 76.4022 99.8409C75.8411 99.8409 75.3794 99.9865 75.0172 100.278C74.655 100.569 74.3869 100.951 74.2129 101.423C74.0389 101.895 73.9519 102.405 73.9519 102.952C73.9519 103.499 74.0389 104.006 74.2129 104.475C74.3869 104.944 74.655 105.322 75.0172 105.61C75.3794 105.897 75.8411 106.041 76.4022 106.041ZM83.6039 107L81.111 98.8182H82.432L84.2005 105.082H84.2857L86.0328 98.8182H87.3752L89.101 105.061H89.1863L90.9547 98.8182H92.2757L89.7828 107H88.5471L86.7573 100.714H86.6294L84.8397 107H83.6039ZM100.01 107L97.5172 98.8182H98.8382L100.607 105.082H100.692L102.439 98.8182H103.781L105.507 105.061H105.593L107.361 98.8182H108.682L106.189 107H104.953L103.164 100.714H103.036L101.246 107H100.01ZM111.601 102.078V107H110.344V96.0909H111.601V100.097H111.708C111.899 99.674 112.187 99.3384 112.57 99.0898C112.958 98.8377 113.472 98.7116 114.115 98.7116C114.673 98.7116 115.161 98.8235 115.58 99.0472C115.999 99.2674 116.324 99.6065 116.555 100.065C116.789 100.519 116.906 101.098 116.906 101.801V107H115.649V101.886C115.649 101.237 115.481 100.734 115.143 100.379C114.809 100.02 114.346 99.8409 113.753 99.8409C113.341 99.8409 112.972 99.9279 112.645 100.102C112.322 100.276 112.066 100.53 111.878 100.864C111.693 101.197 111.601 101.602 111.601 102.078ZM122.637 107.17C121.848 107.17 121.168 106.996 120.597 106.648C120.028 106.297 119.59 105.807 119.281 105.178C118.975 104.546 118.823 103.811 118.823 102.973C118.823 102.135 118.975 101.396 119.281 100.757C119.59 100.114 120.019 99.6136 120.57 99.255C121.124 98.8928 121.77 98.7116 122.509 98.7116C122.935 98.7116 123.356 98.7827 123.771 98.9247C124.187 99.0668 124.565 99.2976 124.906 99.6172C125.247 99.9332 125.518 100.352 125.721 100.874C125.923 101.396 126.024 102.039 126.024 102.803V103.335H119.718V102.249H124.746C124.746 101.787 124.654 101.375 124.469 101.013C124.288 100.651 124.029 100.365 123.691 100.155C123.358 99.9457 122.963 99.8409 122.509 99.8409C122.008 99.8409 121.575 99.9652 121.209 100.214C120.847 100.459 120.568 100.778 120.373 101.173C120.177 101.567 120.08 101.989 120.08 102.44V103.165C120.08 103.783 120.186 104.306 120.399 104.736C120.616 105.162 120.916 105.487 121.3 105.711C121.683 105.931 122.129 106.041 122.637 106.041C122.967 106.041 123.265 105.995 123.532 105.903C123.801 105.807 124.034 105.665 124.229 105.477C124.425 105.285 124.576 105.047 124.682 104.763L125.897 105.104C125.769 105.516 125.554 105.878 125.252 106.19C124.95 106.499 124.577 106.741 124.133 106.915C123.69 107.085 123.191 107.17 122.637 107.17ZM127.937 107V98.8182H129.151V100.054H129.236C129.386 99.6491 129.655 99.3207 130.046 99.0685C130.437 98.8164 130.877 98.6903 131.367 98.6903C131.459 98.6903 131.575 98.6921 131.713 98.6957C131.852 98.6992 131.957 98.7045 132.028 98.7116V99.9901C131.985 99.9794 131.887 99.9634 131.735 99.9421C131.585 99.9173 131.427 99.9048 131.261 99.9048C130.863 99.9048 130.508 99.9883 130.195 100.155C129.886 100.319 129.641 100.546 129.46 100.837C129.283 101.125 129.194 101.453 129.194 101.822V107H127.937ZM136.699 107.17C135.911 107.17 135.231 106.996 134.659 106.648C134.091 106.297 133.652 105.807 133.343 105.178C133.038 104.546 132.885 103.811 132.885 102.973C132.885 102.135 133.038 101.396 133.343 100.757C133.652 100.114 134.082 99.6136 134.632 99.255C135.186 98.8928 135.833 98.7116 136.571 98.7116C136.997 98.7116 137.418 98.7827 137.834 98.9247C138.249 99.0668 138.627 99.2976 138.968 99.6172C139.309 99.9332 139.581 100.352 139.783 100.874C139.986 101.396 140.087 102.039 140.087 102.803V103.335H133.78V102.249H138.809C138.809 101.787 138.716 101.375 138.532 101.013C138.35 100.651 138.091 100.365 137.754 100.155C137.42 99.9457 137.026 99.8409 136.571 99.8409C136.071 99.8409 135.637 99.9652 135.272 100.214C134.909 100.459 134.631 100.778 134.435 101.173C134.24 101.567 134.142 101.989 134.142 102.44V103.165C134.142 103.783 134.249 104.306 134.462 104.736C134.679 105.162 134.979 105.487 135.362 105.711C135.746 105.931 136.191 106.041 136.699 106.041C137.029 106.041 137.328 105.995 137.594 105.903C137.864 105.807 138.097 105.665 138.292 105.477C138.487 105.285 138.638 105.047 138.745 104.763L139.959 105.104C139.831 105.516 139.616 105.878 139.315 106.19C139.013 106.499 138.64 106.741 138.196 106.915C137.752 107.085 137.253 107.17 136.699 107.17ZM146.218 110.068V98.8182H147.432V100.118H147.582C147.674 99.9759 147.802 99.7947 147.965 99.5746C148.132 99.3509 148.37 99.152 148.679 98.978C148.991 98.8004 149.414 98.7116 149.947 98.7116C150.636 98.7116 151.243 98.8839 151.768 99.2283C152.294 99.5728 152.704 100.061 152.999 100.693C153.294 101.325 153.441 102.071 153.441 102.93C153.441 103.797 153.294 104.548 152.999 105.184C152.704 105.816 152.296 106.306 151.774 106.654C151.252 106.998 150.65 107.17 149.968 107.17C149.442 107.17 149.022 107.083 148.706 106.909C148.389 106.732 148.146 106.531 147.976 106.308C147.805 106.08 147.674 105.892 147.582 105.743H147.475V110.068H146.218ZM147.454 102.909C147.454 103.527 147.544 104.072 147.725 104.544C147.907 105.013 148.171 105.381 148.519 105.647C148.867 105.91 149.293 106.041 149.797 106.041C150.323 106.041 150.762 105.903 151.113 105.626C151.468 105.345 151.735 104.969 151.912 104.496C152.093 104.021 152.184 103.491 152.184 102.909C152.184 102.334 152.095 101.815 151.918 101.354C151.744 100.888 151.479 100.521 151.124 100.251C150.772 99.9776 150.33 99.8409 149.797 99.8409C149.286 99.8409 148.856 99.9705 148.508 100.23C148.16 100.485 147.898 100.844 147.72 101.306C147.543 101.764 147.454 102.298 147.454 102.909ZM157.766 107.192C157.248 107.192 156.777 107.094 156.355 106.899C155.932 106.7 155.597 106.414 155.348 106.041C155.099 105.665 154.975 105.21 154.975 104.678C154.975 104.209 155.067 103.829 155.252 103.538C155.437 103.243 155.684 103.012 155.992 102.845C156.301 102.678 156.642 102.554 157.015 102.472C157.392 102.387 157.77 102.32 158.15 102.27C158.647 102.206 159.05 102.158 159.359 102.126C159.671 102.091 159.899 102.032 160.041 101.95C160.186 101.869 160.259 101.727 160.259 101.524V101.482C160.259 100.956 160.115 100.548 159.828 100.256C159.544 99.9652 159.112 99.8196 158.533 99.8196C157.933 99.8196 157.463 99.951 157.122 100.214C156.781 100.477 156.541 100.757 156.403 101.055L155.209 100.629C155.422 100.132 155.707 99.745 156.062 99.468C156.42 99.1875 156.811 98.9922 157.234 98.8821C157.66 98.7685 158.079 98.7116 158.491 98.7116C158.753 98.7116 159.055 98.7436 159.396 98.8075C159.741 98.8679 160.073 98.994 160.392 99.1857C160.715 99.3775 160.984 99.6669 161.197 100.054C161.41 100.441 161.516 100.96 161.516 101.609V107H160.259V105.892H160.195C160.11 106.07 159.968 106.26 159.769 106.462C159.57 106.664 159.306 106.837 158.975 106.979C158.645 107.121 158.242 107.192 157.766 107.192ZM157.958 106.062C158.455 106.062 158.874 105.965 159.215 105.77C159.56 105.574 159.819 105.322 159.993 105.013C160.17 104.704 160.259 104.379 160.259 104.038V102.888C160.206 102.952 160.089 103.01 159.908 103.064C159.73 103.113 159.524 103.158 159.29 103.197C159.059 103.232 158.833 103.264 158.613 103.293C158.397 103.317 158.221 103.339 158.086 103.357C157.759 103.399 157.454 103.468 157.17 103.564C156.889 103.657 156.662 103.797 156.488 103.985C156.317 104.17 156.232 104.422 156.232 104.741C156.232 105.178 156.394 105.509 156.717 105.732C157.044 105.952 157.457 106.062 157.958 106.062ZM167.369 98.8182V99.8835H163.129V98.8182H167.369ZM164.365 96.858H165.622V104.656C165.622 105.011 165.673 105.278 165.776 105.455C165.883 105.629 166.018 105.746 166.181 105.807C166.348 105.864 166.524 105.892 166.708 105.892C166.847 105.892 166.961 105.885 167.049 105.871C167.138 105.853 167.209 105.839 167.262 105.828L167.518 106.957C167.433 106.989 167.314 107.021 167.161 107.053C167.009 107.089 166.815 107.107 166.581 107.107C166.225 107.107 165.877 107.03 165.537 106.877C165.199 106.725 164.919 106.492 164.695 106.18C164.475 105.867 164.365 105.473 164.365 104.997V96.858ZM169.26 107V98.8182H170.517V107H169.26ZM169.899 97.4545C169.654 97.4545 169.443 97.3711 169.265 97.2042C169.091 97.0373 169.004 96.8366 169.004 96.6023C169.004 96.3679 169.091 96.1673 169.265 96.0004C169.443 95.8335 169.654 95.75 169.899 95.75C170.144 95.75 170.354 95.8335 170.528 96.0004C170.705 96.1673 170.794 96.3679 170.794 96.6023C170.794 96.8366 170.705 97.0373 170.528 97.2042C170.354 97.3711 170.144 97.4545 169.899 97.4545ZM176.25 107.17C175.462 107.17 174.782 106.996 174.21 106.648C173.642 106.297 173.203 105.807 172.894 105.178C172.589 104.546 172.436 103.811 172.436 102.973C172.436 102.135 172.589 101.396 172.894 100.757C173.203 100.114 173.633 99.6136 174.183 99.255C174.737 98.8928 175.383 98.7116 176.122 98.7116C176.548 98.7116 176.969 98.7827 177.384 98.9247C177.8 99.0668 178.178 99.2976 178.519 99.6172C178.86 99.9332 179.132 100.352 179.334 100.874C179.536 101.396 179.638 102.039 179.638 102.803V103.335H173.331V102.249H178.359C178.359 101.787 178.267 101.375 178.082 101.013C177.901 100.651 177.642 100.365 177.305 100.155C176.971 99.9457 176.577 99.8409 176.122 99.8409C175.621 99.8409 175.188 99.9652 174.822 100.214C174.46 100.459 174.181 100.778 173.986 101.173C173.791 101.567 173.693 101.989 173.693 102.44V103.165C173.693 103.783 173.8 104.306 174.013 104.736C174.229 105.162 174.529 105.487 174.913 105.711C175.296 105.931 175.742 106.041 176.25 106.041C176.58 106.041 176.878 105.995 177.145 105.903C177.415 105.807 177.647 105.665 177.843 105.477C178.038 105.285 178.189 105.047 178.295 104.763L179.51 105.104C179.382 105.516 179.167 105.878 178.865 106.19C178.563 106.499 178.191 106.741 177.747 106.915C177.303 107.085 176.804 107.17 176.25 107.17ZM182.807 102.078V107H181.55V98.8182H182.764V100.097H182.871C183.063 99.6811 183.354 99.3473 183.745 99.0952C184.135 98.8395 184.639 98.7116 185.257 98.7116C185.811 98.7116 186.296 98.8253 186.712 99.0526C187.127 99.2763 187.45 99.6172 187.681 100.075C187.912 100.53 188.027 101.105 188.027 101.801V107H186.77V101.886C186.77 101.244 186.603 100.743 186.269 100.384C185.936 100.022 185.478 99.8409 184.895 99.8409C184.494 99.8409 184.135 99.9279 183.819 100.102C183.507 100.276 183.26 100.53 183.079 100.864C182.898 101.197 182.807 101.602 182.807 102.078ZM193.648 107.17C192.881 107.17 192.221 106.989 191.667 106.627C191.113 106.265 190.687 105.766 190.388 105.13C190.09 104.495 189.941 103.768 189.941 102.952C189.941 102.121 190.094 101.387 190.399 100.752C190.708 100.113 191.138 99.6136 191.688 99.255C192.242 98.8928 192.888 98.7116 193.627 98.7116C194.202 98.7116 194.721 98.8182 195.182 99.0312C195.644 99.2443 196.022 99.5426 196.317 99.9261C196.612 100.31 196.795 100.757 196.866 101.268H195.608C195.513 100.896 195.3 100.565 194.969 100.278C194.643 99.9865 194.202 99.8409 193.648 99.8409C193.158 99.8409 192.729 99.9687 192.359 100.224C191.993 100.477 191.708 100.833 191.502 101.295C191.299 101.753 191.198 102.291 191.198 102.909C191.198 103.541 191.297 104.092 191.496 104.56C191.699 105.029 191.983 105.393 192.349 105.652C192.718 105.912 193.151 106.041 193.648 106.041C193.975 106.041 194.271 105.984 194.538 105.871C194.804 105.757 195.03 105.594 195.214 105.381C195.399 105.168 195.53 104.912 195.608 104.614H196.866C196.795 105.097 196.619 105.532 196.338 105.919C196.061 106.302 195.694 106.608 195.236 106.835C194.781 107.059 194.252 107.17 193.648 107.17ZM202.134 107.17C201.345 107.17 200.665 106.996 200.094 106.648C199.525 106.297 199.087 105.807 198.778 105.178C198.472 104.546 198.32 103.811 198.32 102.973C198.32 102.135 198.472 101.396 198.778 100.757C199.087 100.114 199.517 99.6136 200.067 99.255C200.621 98.8928 201.267 98.7116 202.006 98.7116C202.432 98.7116 202.853 98.7827 203.268 98.9247C203.684 99.0668 204.062 99.2976 204.403 99.6172C204.744 99.9332 205.015 100.352 205.218 100.874C205.42 101.396 205.521 102.039 205.521 102.803V103.335H199.215V102.249H204.243C204.243 101.787 204.151 101.375 203.966 101.013C203.785 100.651 203.526 100.365 203.188 100.155C202.855 99.9457 202.46 99.8409 202.006 99.8409C201.505 99.8409 201.072 99.9652 200.706 100.214C200.344 100.459 200.065 100.778 199.87 101.173C199.675 101.567 199.577 101.989 199.577 102.44V103.165C199.577 103.783 199.683 104.306 199.896 104.736C200.113 105.162 200.413 105.487 200.797 105.711C201.18 105.931 201.626 106.041 202.134 106.041C202.464 106.041 202.762 105.995 203.029 105.903C203.298 105.807 203.531 105.665 203.726 105.477C203.922 105.285 204.073 105.047 204.179 104.763L205.394 105.104C205.266 105.516 205.051 105.878 204.749 106.19C204.447 106.499 204.074 106.741 203.631 106.915C203.187 107.085 202.688 107.17 202.134 107.17ZM214.976 107.17C214.209 107.17 213.549 106.989 212.995 106.627C212.441 106.265 212.015 105.766 211.716 105.13C211.418 104.495 211.269 103.768 211.269 102.952C211.269 102.121 211.422 101.387 211.727 100.752C212.036 100.113 212.466 99.6136 213.016 99.255C213.57 98.8928 214.216 98.7116 214.955 98.7116C215.53 98.7116 216.049 98.8182 216.51 99.0312C216.972 99.2443 217.35 99.5426 217.645 99.9261C217.94 100.31 218.123 100.757 218.194 101.268H216.937C216.841 100.896 216.628 100.565 216.297 100.278C215.971 99.9865 215.53 99.8409 214.976 99.8409C214.486 99.8409 214.057 99.9687 213.687 100.224C213.322 100.477 213.036 100.833 212.83 101.295C212.627 101.753 212.526 102.291 212.526 102.909C212.526 103.541 212.626 104.092 212.824 104.56C213.027 105.029 213.311 105.393 213.677 105.652C214.046 105.912 214.479 106.041 214.976 106.041C215.303 106.041 215.6 105.984 215.866 105.871C216.132 105.757 216.358 105.594 216.542 105.381C216.727 105.168 216.858 104.912 216.937 104.614H218.194C218.123 105.097 217.947 105.532 217.666 105.919C217.389 106.302 217.022 106.608 216.564 106.835C216.109 107.059 215.58 107.17 214.976 107.17ZM222.439 107.192C221.921 107.192 221.45 107.094 221.028 106.899C220.605 106.7 220.269 106.414 220.021 106.041C219.772 105.665 219.648 105.21 219.648 104.678C219.648 104.209 219.74 103.829 219.925 103.538C220.11 103.243 220.356 103.012 220.665 102.845C220.974 102.678 221.315 102.554 221.688 102.472C222.064 102.387 222.443 102.32 222.823 102.27C223.32 102.206 223.723 102.158 224.032 102.126C224.344 102.091 224.572 102.032 224.714 101.95C224.859 101.869 224.932 101.727 224.932 101.524V101.482C224.932 100.956 224.788 100.548 224.501 100.256C224.216 99.9652 223.785 99.8196 223.206 99.8196C222.606 99.8196 222.135 99.951 221.795 100.214C221.454 100.477 221.214 100.757 221.075 101.055L219.882 100.629C220.095 100.132 220.379 99.745 220.735 99.468C221.093 99.1875 221.484 98.9922 221.906 98.8821C222.333 98.7685 222.752 98.7116 223.164 98.7116C223.426 98.7116 223.728 98.7436 224.069 98.8075C224.414 98.8679 224.746 98.994 225.065 99.1857C225.388 99.3775 225.656 99.6669 225.869 100.054C226.083 100.441 226.189 100.96 226.189 101.609V107H224.932V105.892H224.868C224.783 106.07 224.641 106.26 224.442 106.462C224.243 106.664 223.979 106.837 223.648 106.979C223.318 107.121 222.915 107.192 222.439 107.192ZM222.631 106.062C223.128 106.062 223.547 105.965 223.888 105.77C224.232 105.574 224.492 105.322 224.666 105.013C224.843 104.704 224.932 104.379 224.932 104.038V102.888C224.879 102.952 224.762 103.01 224.58 103.064C224.403 103.113 224.197 103.158 223.963 103.197C223.732 103.232 223.506 103.264 223.286 103.293C223.069 103.317 222.894 103.339 222.759 103.357C222.432 103.399 222.127 103.468 221.843 103.564C221.562 103.657 221.335 103.797 221.161 103.985C220.99 104.17 220.905 104.422 220.905 104.741C220.905 105.178 221.067 105.509 221.39 105.732C221.716 105.952 222.13 106.062 222.631 106.062ZM228.484 107V98.8182H229.698V100.097H229.805C229.975 99.6598 230.25 99.3207 230.63 99.0792C231.01 98.8342 231.467 98.7116 231.999 98.7116C232.539 98.7116 232.988 98.8342 233.347 99.0792C233.709 99.3207 233.991 99.6598 234.194 100.097H234.279C234.489 99.674 234.803 99.3384 235.222 99.0898C235.641 98.8377 236.143 98.7116 236.729 98.7116C237.461 98.7116 238.059 98.9407 238.524 99.3988C238.99 99.8533 239.222 100.562 239.222 101.524V107H237.965V101.524C237.965 100.92 237.8 100.489 237.47 100.23C237.139 99.9705 236.751 99.8409 236.303 99.8409C235.728 99.8409 235.282 100.015 234.966 100.363C234.65 100.707 234.492 101.144 234.492 101.673V107H233.214V101.396C233.214 100.931 233.063 100.556 232.761 100.272C232.459 99.9847 232.07 99.8409 231.594 99.8409C231.268 99.8409 230.962 99.9279 230.678 100.102C230.398 100.276 230.17 100.517 229.996 100.826C229.826 101.132 229.741 101.485 229.741 101.886V107H228.484ZM244.951 107.17C244.163 107.17 243.483 106.996 242.911 106.648C242.343 106.297 241.904 105.807 241.595 105.178C241.29 104.546 241.137 103.811 241.137 102.973C241.137 102.135 241.29 101.396 241.595 100.757C241.904 100.114 242.334 99.6136 242.884 99.255C243.438 98.8928 244.085 98.7116 244.823 98.7116C245.249 98.7116 245.67 98.7827 246.086 98.9247C246.501 99.0668 246.879 99.2976 247.22 99.6172C247.561 99.9332 247.833 100.352 248.035 100.874C248.238 101.396 248.339 102.039 248.339 102.803V103.335H242.032V102.249H247.06C247.06 101.787 246.968 101.375 246.783 101.013C246.602 100.651 246.343 100.365 246.006 100.155C245.672 99.9457 245.278 99.8409 244.823 99.8409C244.323 99.8409 243.889 99.9652 243.524 100.214C243.161 100.459 242.883 100.778 242.687 101.173C242.492 101.567 242.394 101.989 242.394 102.44V103.165C242.394 103.783 242.501 104.306 242.714 104.736C242.93 105.162 243.231 105.487 243.614 105.711C243.998 105.931 244.443 106.041 244.951 106.041C245.281 106.041 245.58 105.995 245.846 105.903C246.116 105.807 246.348 105.665 246.544 105.477C246.739 105.285 246.89 105.047 246.997 104.763L248.211 105.104C248.083 105.516 247.868 105.878 247.566 106.19C247.265 106.499 246.892 106.741 246.448 106.915C246.004 107.085 245.505 107.17 244.951 107.17ZM259.626 103.655V98.8182H260.883V107H259.626V105.615H259.541C259.349 106.031 259.051 106.384 258.646 106.675C258.241 106.963 257.73 107.107 257.112 107.107C256.601 107.107 256.146 106.995 255.748 106.771C255.351 106.544 255.038 106.203 254.811 105.748C254.584 105.29 254.47 104.713 254.47 104.017V98.8182H255.727V103.932C255.727 104.528 255.894 105.004 256.228 105.359C256.565 105.714 256.995 105.892 257.517 105.892C257.829 105.892 258.147 105.812 258.47 105.652C258.797 105.493 259.07 105.248 259.291 104.917C259.514 104.587 259.626 104.166 259.626 103.655ZM263.186 110.068V98.8182H264.4V100.118H264.549C264.642 99.9759 264.77 99.7947 264.933 99.5746C265.1 99.3509 265.338 99.152 265.647 98.978C265.959 98.8004 266.382 98.7116 266.914 98.7116C267.603 98.7116 268.211 98.8839 268.736 99.2283C269.262 99.5728 269.672 100.061 269.967 100.693C270.261 101.325 270.409 102.071 270.409 102.93C270.409 103.797 270.261 104.548 269.967 105.184C269.672 105.816 269.263 106.306 268.741 106.654C268.219 106.998 267.618 107.17 266.936 107.17C266.41 107.17 265.989 107.083 265.673 106.909C265.357 106.732 265.114 106.531 264.944 106.308C264.773 106.08 264.642 105.892 264.549 105.743H264.443V110.068H263.186ZM264.422 102.909C264.422 103.527 264.512 104.072 264.693 104.544C264.874 105.013 265.139 105.381 265.487 105.647C265.835 105.91 266.261 106.041 266.765 106.041C267.291 106.041 267.729 105.903 268.081 105.626C268.436 105.345 268.702 104.969 268.88 104.496C269.061 104.021 269.152 103.491 269.152 102.909C269.152 102.334 269.063 101.815 268.885 101.354C268.711 100.888 268.447 100.521 268.092 100.251C267.74 99.9776 267.298 99.8409 266.765 99.8409C266.254 99.8409 265.824 99.9705 265.476 100.23C265.128 100.485 264.865 100.844 264.688 101.306C264.51 101.764 264.422 102.298 264.422 102.909ZM42.25 130.997C41.8203 130.997 41.4279 130.892 41.0728 130.683C40.7177 130.47 40.4336 130.186 40.2205 129.831C40.011 129.475 39.9062 129.083 39.9062 128.653C39.9062 128.22 40.011 127.828 40.2205 127.476C40.4336 127.121 40.7177 126.839 41.0728 126.629C41.4279 126.416 41.8203 126.31 42.25 126.31C42.6832 126.31 43.0756 126.416 43.4272 126.629C43.7823 126.839 44.0646 127.121 44.2741 127.476C44.4872 127.828 44.5938 128.22 44.5938 128.653C44.5938 129.083 44.4872 129.475 44.2741 129.831C44.0646 130.186 43.7823 130.47 43.4272 130.683C43.0756 130.892 42.6832 130.997 42.25 130.997ZM54.821 133V122.091H58.5071C59.3594 122.091 60.0589 122.237 60.6058 122.528C61.1527 122.815 61.5575 123.211 61.8203 123.716C62.0831 124.22 62.2145 124.793 62.2145 125.436C62.2145 126.079 62.0831 126.649 61.8203 127.146C61.5575 127.643 61.1545 128.034 60.6112 128.318C60.0678 128.598 59.3736 128.739 58.5284 128.739H55.5455V127.545H58.4858C59.0682 127.545 59.5369 127.46 59.892 127.29C60.2507 127.119 60.5099 126.878 60.6697 126.565C60.8331 126.249 60.9148 125.873 60.9148 125.436C60.9148 124.999 60.8331 124.618 60.6697 124.291C60.5064 123.964 60.2454 123.712 59.8867 123.534C59.5281 123.353 59.054 123.263 58.4645 123.263H56.142V133H54.821ZM59.956 128.099L62.6406 133H61.1065L58.4645 128.099H59.956ZM67.5878 133.17C66.7994 133.17 66.1194 132.996 65.5477 132.648C64.9795 132.297 64.5409 131.807 64.232 131.178C63.9266 130.546 63.7739 129.811 63.7739 128.973C63.7739 128.135 63.9266 127.396 64.232 126.757C64.5409 126.114 64.9706 125.614 65.521 125.255C66.075 124.893 66.7213 124.712 67.46 124.712C67.8861 124.712 68.3069 124.783 68.7224 124.925C69.1379 125.067 69.5161 125.298 69.857 125.617C70.1979 125.933 70.4695 126.352 70.672 126.874C70.8744 127.396 70.9756 128.039 70.9756 128.803V129.335H64.6688V128.249H69.6972C69.6972 127.787 69.6048 127.375 69.4202 127.013C69.2391 126.651 68.9798 126.365 68.6425 126.155C68.3087 125.946 67.9145 125.841 67.46 125.841C66.9593 125.841 66.526 125.965 66.1602 126.214C65.798 126.459 65.5193 126.778 65.324 127.173C65.1286 127.567 65.031 127.989 65.031 128.44V129.165C65.031 129.783 65.1375 130.306 65.3506 130.736C65.5672 131.162 65.8673 131.487 66.2508 131.711C66.6343 131.931 67.08 132.041 67.5878 132.041C67.9181 132.041 68.2164 131.995 68.4827 131.903C68.7526 131.807 68.9852 131.665 69.1805 131.477C69.3758 131.285 69.5267 131.047 69.6333 130.763L70.8477 131.104C70.7199 131.516 70.5051 131.878 70.2032 132.19C69.9014 132.499 69.5285 132.741 69.0846 132.915C68.6407 133.085 68.1418 133.17 67.5878 133.17ZM76.2117 133.17C75.4447 133.17 74.7842 132.989 74.2302 132.627C73.6762 132.265 73.2501 131.766 72.9518 131.13C72.6535 130.495 72.5044 129.768 72.5044 128.952C72.5044 128.121 72.657 127.387 72.9624 126.752C73.2714 126.113 73.7011 125.614 74.2515 125.255C74.8055 124.893 75.4518 124.712 76.1904 124.712C76.7657 124.712 77.2842 124.818 77.7458 125.031C78.2075 125.244 78.5857 125.543 78.8804 125.926C79.1752 126.31 79.358 126.757 79.4291 127.268H78.172C78.0761 126.896 77.863 126.565 77.5328 126.278C77.2061 125.987 76.7657 125.841 76.2117 125.841C75.7217 125.841 75.292 125.969 74.9227 126.224C74.5569 126.477 74.271 126.833 74.0651 127.295C73.8627 127.753 73.7615 128.291 73.7615 128.909C73.7615 129.541 73.8609 130.092 74.0597 130.56C74.2622 131.029 74.5463 131.393 74.912 131.652C75.2813 131.912 75.7146 132.041 76.2117 132.041C76.5384 132.041 76.835 131.984 77.1013 131.871C77.3676 131.757 77.5931 131.594 77.7778 131.381C77.9624 131.168 78.0938 130.912 78.172 130.614H79.4291C79.358 131.097 79.1823 131.532 78.9017 131.919C78.6247 132.302 78.2572 132.608 77.7991 132.835C77.3445 133.059 76.8154 133.17 76.2117 133.17ZM83.6744 133.192C83.156 133.192 82.6855 133.094 82.2629 132.899C81.8403 132.7 81.5047 132.414 81.2561 132.041C81.0075 131.665 80.8833 131.21 80.8833 130.678C80.8833 130.209 80.9756 129.829 81.1602 129.538C81.3449 129.243 81.5917 129.012 81.9007 128.845C82.2096 128.678 82.5505 128.554 82.9234 128.472C83.2998 128.387 83.678 128.32 84.058 128.27C84.5551 128.206 84.9582 128.158 85.2671 128.126C85.5796 128.091 85.8069 128.032 85.949 127.95C86.0945 127.869 86.1673 127.727 86.1673 127.524V127.482C86.1673 126.956 86.0235 126.548 85.7359 126.256C85.4518 125.965 85.0203 125.82 84.4415 125.82C83.8414 125.82 83.3708 125.951 83.0299 126.214C82.689 126.477 82.4493 126.757 82.3108 127.055L81.1176 126.629C81.3307 126.132 81.6148 125.745 81.9699 125.468C82.3286 125.187 82.7192 124.992 83.1418 124.882C83.5679 124.768 83.9869 124.712 84.3989 124.712C84.6617 124.712 84.9635 124.744 85.3044 124.808C85.6489 124.868 85.9809 124.994 86.3005 125.186C86.6237 125.377 86.8918 125.667 87.1048 126.054C87.3179 126.441 87.4244 126.96 87.4244 127.609V133H86.1673V131.892H86.1034C86.0182 132.07 85.8762 132.26 85.6773 132.462C85.4784 132.664 85.2139 132.837 84.8836 132.979C84.5534 133.121 84.1503 133.192 83.6744 133.192ZM83.8662 132.062C84.3634 132.062 84.7824 131.965 85.1233 131.77C85.4678 131.574 85.727 131.322 85.901 131.013C86.0786 130.704 86.1673 130.379 86.1673 130.038V128.888C86.1141 128.952 85.9969 129.01 85.8158 129.064C85.6382 129.113 85.4323 129.158 85.1979 129.197C84.9671 129.232 84.7416 129.264 84.5214 129.293C84.3048 129.317 84.129 129.339 83.9941 129.357C83.6673 129.399 83.3619 129.468 83.0779 129.564C82.7973 129.657 82.57 129.797 82.396 129.985C82.2256 130.17 82.1404 130.422 82.1404 130.741C82.1404 131.178 82.3019 131.509 82.6251 131.732C82.9518 131.952 83.3655 132.062 83.8662 132.062ZM89.7189 136.068V124.818H90.9334V126.118H91.0826C91.1749 125.976 91.3027 125.795 91.4661 125.575C91.633 125.351 91.8709 125.152 92.1799 124.978C92.4924 124.8 92.915 124.712 93.4476 124.712C94.1365 124.712 94.7438 124.884 95.2694 125.228C95.7949 125.573 96.2051 126.061 96.4998 126.693C96.7946 127.325 96.9419 128.071 96.9419 128.93C96.9419 129.797 96.7946 130.548 96.4998 131.184C96.2051 131.816 95.7967 132.306 95.2747 132.654C94.7527 132.998 94.1507 133.17 93.4689 133.17C92.9434 133.17 92.5225 133.083 92.2065 132.909C91.8904 132.732 91.6472 132.531 91.4767 132.308C91.3063 132.08 91.1749 131.892 91.0826 131.743H90.976V136.068H89.7189ZM90.9547 128.909C90.9547 129.527 91.0453 130.072 91.2264 130.544C91.4075 131.013 91.6721 131.381 92.0201 131.647C92.3681 131.91 92.7942 132.041 93.2985 132.041C93.824 132.041 94.2626 131.903 94.6142 131.626C94.9693 131.345 95.2356 130.969 95.4132 130.496C95.5943 130.021 95.6848 129.491 95.6848 128.909C95.6848 128.334 95.5961 127.815 95.4185 127.354C95.2445 126.888 94.9799 126.521 94.6248 126.251C94.2733 125.978 93.8311 125.841 93.2985 125.841C92.7871 125.841 92.3574 125.971 92.0094 126.23C91.6614 126.485 91.3986 126.844 91.2211 127.306C91.0435 127.764 90.9547 128.298 90.9547 128.909ZM104.335 122.091V133H103.078V122.091H104.335ZM109.046 133.192C108.527 133.192 108.057 133.094 107.634 132.899C107.211 132.7 106.876 132.414 106.627 132.041C106.379 131.665 106.254 131.21 106.254 130.678C106.254 130.209 106.347 129.829 106.531 129.538C106.716 129.243 106.963 129.012 107.272 128.845C107.581 128.678 107.922 128.554 108.294 128.472C108.671 128.387 109.049 128.32 109.429 128.27C109.926 128.206 110.329 128.158 110.638 128.126C110.951 128.091 111.178 128.032 111.32 127.95C111.466 127.869 111.538 127.727 111.538 127.524V127.482C111.538 126.956 111.395 126.548 111.107 126.256C110.823 125.965 110.391 125.82 109.813 125.82C109.212 125.82 108.742 125.951 108.401 126.214C108.06 126.477 107.82 126.757 107.682 127.055L106.489 126.629C106.702 126.132 106.986 125.745 107.341 125.468C107.7 125.187 108.09 124.992 108.513 124.882C108.939 124.768 109.358 124.712 109.77 124.712C110.033 124.712 110.335 124.744 110.676 124.808C111.02 124.868 111.352 124.994 111.672 125.186C111.995 125.377 112.263 125.667 112.476 126.054C112.689 126.441 112.796 126.96 112.796 127.609V133H111.538V131.892H111.475C111.389 132.07 111.247 132.26 111.048 132.462C110.85 132.664 110.585 132.837 110.255 132.979C109.924 133.121 109.521 133.192 109.046 133.192ZM109.237 132.062C109.734 132.062 110.153 131.965 110.494 131.77C110.839 131.574 111.098 131.322 111.272 131.013C111.45 130.704 111.538 130.379 111.538 130.038V128.888C111.485 128.952 111.368 129.01 111.187 129.064C111.009 129.113 110.803 129.158 110.569 129.197C110.338 129.232 110.113 129.264 109.892 129.293C109.676 129.317 109.5 129.339 109.365 129.357C109.038 129.399 108.733 129.468 108.449 129.564C108.168 129.657 107.941 129.797 107.767 129.985C107.597 130.17 107.511 130.422 107.511 130.741C107.511 131.178 107.673 131.509 107.996 131.732C108.323 131.952 108.737 132.062 109.237 132.062ZM120.885 126.651L119.756 126.97C119.685 126.782 119.58 126.599 119.442 126.422C119.307 126.24 119.122 126.091 118.888 125.974C118.654 125.857 118.354 125.798 117.988 125.798C117.487 125.798 117.07 125.914 116.736 126.145C116.406 126.372 116.241 126.661 116.241 127.013C116.241 127.325 116.354 127.572 116.581 127.753C116.809 127.934 117.164 128.085 117.647 128.206L118.861 128.504C119.593 128.682 120.138 128.953 120.497 129.319C120.855 129.681 121.035 130.148 121.035 130.72C121.035 131.189 120.9 131.608 120.63 131.977C120.363 132.347 119.991 132.638 119.511 132.851C119.032 133.064 118.474 133.17 117.839 133.17C117.004 133.17 116.313 132.989 115.767 132.627C115.22 132.265 114.873 131.736 114.728 131.04L115.921 130.741C116.035 131.182 116.249 131.512 116.566 131.732C116.885 131.952 117.302 132.062 117.817 132.062C118.403 132.062 118.868 131.938 119.213 131.69C119.561 131.437 119.735 131.136 119.735 130.784C119.735 130.5 119.635 130.262 119.437 130.07C119.238 129.875 118.932 129.729 118.52 129.634L117.157 129.314C116.407 129.136 115.857 128.861 115.506 128.488C115.157 128.112 114.983 127.641 114.983 127.077C114.983 126.615 115.113 126.207 115.372 125.852C115.635 125.496 115.992 125.218 116.443 125.015C116.898 124.813 117.412 124.712 117.988 124.712C118.797 124.712 119.433 124.889 119.895 125.244C120.36 125.599 120.69 126.068 120.885 126.651ZM126.485 124.818V125.884H122.245V124.818H126.485ZM123.481 122.858H124.738V130.656C124.738 131.011 124.79 131.278 124.892 131.455C124.999 131.629 125.134 131.746 125.297 131.807C125.464 131.864 125.64 131.892 125.825 131.892C125.963 131.892 126.077 131.885 126.166 131.871C126.254 131.853 126.325 131.839 126.379 131.828L126.634 132.957C126.549 132.989 126.43 133.021 126.277 133.053C126.125 133.089 125.931 133.107 125.697 133.107C125.342 133.107 124.994 133.03 124.653 132.877C124.315 132.725 124.035 132.492 123.811 132.18C123.591 131.867 123.481 131.473 123.481 130.997V122.858ZM138.731 124.818C138.667 124.278 138.408 123.859 137.954 123.561C137.499 123.263 136.941 123.114 136.281 123.114C135.798 123.114 135.375 123.192 135.013 123.348C134.655 123.504 134.374 123.719 134.172 123.993C133.973 124.266 133.873 124.577 133.873 124.925C133.873 125.216 133.943 125.466 134.081 125.676C134.223 125.882 134.404 126.054 134.624 126.192C134.845 126.327 135.075 126.439 135.317 126.528C135.558 126.613 135.78 126.683 135.983 126.736L137.091 127.034C137.375 127.109 137.691 127.212 138.039 127.343C138.39 127.474 138.726 127.654 139.046 127.881C139.369 128.105 139.635 128.392 139.845 128.744C140.054 129.096 140.159 129.527 140.159 130.038C140.159 130.628 140.004 131.161 139.695 131.636C139.39 132.112 138.943 132.49 138.353 132.771C137.767 133.051 137.055 133.192 136.217 133.192C135.436 133.192 134.759 133.066 134.188 132.814C133.619 132.561 133.172 132.21 132.845 131.759C132.522 131.308 132.339 130.784 132.297 130.188H133.66C133.696 130.599 133.834 130.94 134.076 131.21C134.321 131.477 134.63 131.675 135.003 131.807C135.379 131.935 135.784 131.999 136.217 131.999C136.721 131.999 137.174 131.917 137.575 131.754C137.977 131.587 138.294 131.356 138.529 131.061C138.763 130.763 138.88 130.415 138.88 130.017C138.88 129.655 138.779 129.36 138.577 129.133C138.374 128.906 138.108 128.721 137.778 128.579C137.448 128.437 137.091 128.312 136.707 128.206L135.365 127.822C134.513 127.577 133.838 127.228 133.341 126.773C132.843 126.319 132.595 125.724 132.595 124.989C132.595 124.378 132.76 123.845 133.09 123.391C133.424 122.933 133.872 122.577 134.433 122.325C134.997 122.07 135.628 121.942 136.324 121.942C137.027 121.942 137.652 122.068 138.199 122.32C138.745 122.569 139.179 122.909 139.498 123.343C139.821 123.776 139.992 124.268 140.01 124.818H138.731ZM147.317 129.655V124.818H148.574V133H147.317V131.615H147.231C147.04 132.031 146.741 132.384 146.336 132.675C145.932 132.963 145.42 133.107 144.802 133.107C144.291 133.107 143.836 132.995 143.439 132.771C143.041 132.544 142.729 132.203 142.501 131.748C142.274 131.29 142.16 130.713 142.16 130.017V124.818H143.417V129.932C143.417 130.528 143.584 131.004 143.918 131.359C144.256 131.714 144.685 131.892 145.207 131.892C145.52 131.892 145.838 131.812 146.161 131.652C146.487 131.493 146.761 131.248 146.981 130.917C147.205 130.587 147.317 130.166 147.317 129.655ZM152.133 128.078V133H150.876V124.818H152.091V126.097H152.197C152.389 125.681 152.68 125.347 153.071 125.095C153.461 124.839 153.966 124.712 154.584 124.712C155.138 124.712 155.622 124.825 156.038 125.053C156.453 125.276 156.776 125.617 157.007 126.075C157.238 126.53 157.353 127.105 157.353 127.801V133H156.096V127.886C156.096 127.244 155.929 126.743 155.596 126.384C155.262 126.022 154.804 125.841 154.221 125.841C153.82 125.841 153.461 125.928 153.145 126.102C152.833 126.276 152.586 126.53 152.405 126.864C152.224 127.197 152.133 127.602 152.133 128.078ZM162.74 133.17C162.058 133.17 161.456 132.998 160.934 132.654C160.412 132.306 160.004 131.816 159.709 131.184C159.414 130.548 159.267 129.797 159.267 128.93C159.267 128.071 159.414 127.325 159.709 126.693C160.004 126.061 160.414 125.573 160.94 125.228C161.465 124.884 162.072 124.712 162.761 124.712C163.294 124.712 163.715 124.8 164.024 124.978C164.336 125.152 164.574 125.351 164.738 125.575C164.904 125.795 165.034 125.976 165.126 126.118H165.233V122.091H166.49V133H165.276V131.743H165.126C165.034 131.892 164.903 132.08 164.732 132.308C164.562 132.531 164.319 132.732 164.002 132.909C163.686 133.083 163.266 133.17 162.74 133.17ZM162.911 132.041C163.415 132.041 163.841 131.91 164.189 131.647C164.537 131.381 164.801 131.013 164.983 130.544C165.164 130.072 165.254 129.527 165.254 128.909C165.254 128.298 165.165 127.764 164.988 127.306C164.81 126.844 164.548 126.485 164.2 126.23C163.852 125.971 163.422 125.841 162.911 125.841C162.378 125.841 161.934 125.978 161.579 126.251C161.227 126.521 160.963 126.888 160.785 127.354C160.611 127.815 160.524 128.334 160.524 128.909C160.524 129.491 160.613 130.021 160.79 130.496C160.972 130.969 161.238 131.345 161.589 131.626C161.945 131.903 162.385 132.041 162.911 132.041ZM171.375 133.192C170.856 133.192 170.386 133.094 169.963 132.899C169.54 132.7 169.205 132.414 168.956 132.041C168.708 131.665 168.583 131.21 168.583 130.678C168.583 130.209 168.676 129.829 168.86 129.538C169.045 129.243 169.292 129.012 169.601 128.845C169.91 128.678 170.251 128.554 170.624 128.472C171 128.387 171.378 128.32 171.758 128.27C172.255 128.206 172.658 128.158 172.967 128.126C173.28 128.091 173.507 128.032 173.649 127.95C173.795 127.869 173.868 127.727 173.868 127.524V127.482C173.868 126.956 173.724 126.548 173.436 126.256C173.152 125.965 172.721 125.82 172.142 125.82C171.542 125.82 171.071 125.951 170.73 126.214C170.389 126.477 170.15 126.757 170.011 127.055L168.818 126.629C169.031 126.132 169.315 125.745 169.67 125.468C170.029 125.187 170.419 124.992 170.842 124.882C171.268 124.768 171.687 124.712 172.099 124.712C172.362 124.712 172.664 124.744 173.005 124.808C173.349 124.868 173.681 124.994 174.001 125.186C174.324 125.377 174.592 125.667 174.805 126.054C175.018 126.441 175.125 126.96 175.125 127.609V133H173.868V131.892H173.804C173.718 132.07 173.576 132.26 173.377 132.462C173.179 132.664 172.914 132.837 172.584 132.979C172.254 133.121 171.85 133.192 171.375 133.192ZM171.566 132.062C172.064 132.062 172.483 131.965 172.824 131.77C173.168 131.574 173.427 131.322 173.601 131.013C173.779 130.704 173.868 130.379 173.868 130.038V128.888C173.814 128.952 173.697 129.01 173.516 129.064C173.338 129.113 173.132 129.158 172.898 129.197C172.667 129.232 172.442 129.264 172.222 129.293C172.005 129.317 171.829 129.339 171.694 129.357C171.368 129.399 171.062 129.468 170.778 129.564C170.498 129.657 170.27 129.797 170.096 129.985C169.926 130.17 169.841 130.422 169.841 130.741C169.841 131.178 170.002 131.509 170.325 131.732C170.652 131.952 171.066 132.062 171.566 132.062ZM177.936 136.068C177.723 136.068 177.533 136.05 177.366 136.015C177.199 135.983 177.084 135.951 177.02 135.919L177.339 134.811C177.645 134.889 177.915 134.918 178.149 134.896C178.383 134.875 178.591 134.77 178.772 134.582C178.957 134.397 179.125 134.097 179.278 133.682L179.513 133.043L176.487 124.818H177.851L180.109 131.338H180.194L182.453 124.818H183.816L180.343 134.193C180.187 134.616 179.994 134.966 179.763 135.243C179.532 135.523 179.264 135.731 178.959 135.866C178.657 136.001 178.316 136.068 177.936 136.068ZM187.111 122.091V123.05C187.111 123.341 187.058 123.652 186.951 123.982C186.848 124.309 186.696 124.626 186.493 124.935C186.294 125.241 186.053 125.507 185.769 125.734L185.087 125.18C185.311 124.861 185.504 124.529 185.668 124.184C185.834 123.836 185.918 123.465 185.918 123.071V122.091H187.111ZM193.41 126.651L192.281 126.97C192.21 126.782 192.105 126.599 191.966 126.422C191.831 126.24 191.647 126.091 191.412 125.974C191.178 125.857 190.878 125.798 190.512 125.798C190.011 125.798 189.594 125.914 189.26 126.145C188.93 126.372 188.765 126.661 188.765 127.013C188.765 127.325 188.879 127.572 189.106 127.753C189.333 127.934 189.688 128.085 190.171 128.206L191.386 128.504C192.117 128.682 192.662 128.953 193.021 129.319C193.38 129.681 193.559 130.148 193.559 130.72C193.559 131.189 193.424 131.608 193.154 131.977C192.888 132.347 192.515 132.638 192.036 132.851C191.556 133.064 190.999 133.17 190.363 133.17C189.528 133.17 188.838 132.989 188.291 132.627C187.744 132.265 187.398 131.736 187.252 131.04L188.445 130.741C188.559 131.182 188.774 131.512 189.09 131.732C189.41 131.952 189.827 132.062 190.342 132.062C190.928 132.062 191.393 131.938 191.737 131.69C192.085 131.437 192.259 131.136 192.259 130.784C192.259 130.5 192.16 130.262 191.961 130.07C191.762 129.875 191.457 129.729 191.045 129.634L189.681 129.314C188.932 129.136 188.381 128.861 188.03 128.488C187.682 128.112 187.508 127.641 187.508 127.077C187.508 126.615 187.638 126.207 187.897 125.852C188.16 125.496 188.516 125.218 188.967 125.015C189.422 124.813 189.937 124.712 190.512 124.712C191.322 124.712 191.957 124.889 192.419 125.244C192.884 125.599 193.215 126.068 193.41 126.651ZM205.466 126.651L204.336 126.97C204.265 126.782 204.161 126.599 204.022 126.422C203.887 126.24 203.702 126.091 203.468 125.974C203.234 125.857 202.934 125.798 202.568 125.798C202.067 125.798 201.65 125.914 201.316 126.145C200.986 126.372 200.821 126.661 200.821 127.013C200.821 127.325 200.934 127.572 201.162 127.753C201.389 127.934 201.744 128.085 202.227 128.206L203.441 128.504C204.173 128.682 204.718 128.953 205.077 129.319C205.435 129.681 205.615 130.148 205.615 130.72C205.615 131.189 205.48 131.608 205.21 131.977C204.944 132.347 204.571 132.638 204.091 132.851C203.612 133.064 203.054 133.17 202.419 133.17C201.584 133.17 200.893 132.989 200.347 132.627C199.8 132.265 199.453 131.736 199.308 131.04L200.501 130.741C200.615 131.182 200.83 131.512 201.146 131.732C201.465 131.952 201.882 132.062 202.397 132.062C202.983 132.062 203.449 131.938 203.793 131.69C204.141 131.437 204.315 131.136 204.315 130.784C204.315 130.5 204.216 130.262 204.017 130.07C203.818 129.875 203.512 129.729 203.1 129.634L201.737 129.314C200.988 129.136 200.437 128.861 200.086 128.488C199.738 128.112 199.564 127.641 199.564 127.077C199.564 126.615 199.693 126.207 199.952 125.852C200.215 125.496 200.572 125.218 201.023 125.015C201.478 124.813 201.993 124.712 202.568 124.712C203.377 124.712 204.013 124.889 204.475 125.244C204.94 125.599 205.27 126.068 205.466 126.651ZM210.937 133.17C210.149 133.17 209.469 132.996 208.897 132.648C208.329 132.297 207.891 131.807 207.582 131.178C207.276 130.546 207.123 129.811 207.123 128.973C207.123 128.135 207.276 127.396 207.582 126.757C207.891 126.114 208.32 125.614 208.871 125.255C209.425 124.893 210.071 124.712 210.81 124.712C211.236 124.712 211.657 124.783 212.072 124.925C212.487 125.067 212.866 125.298 213.207 125.617C213.547 125.933 213.819 126.352 214.022 126.874C214.224 127.396 214.325 128.039 214.325 128.803V129.335H208.018V128.249H213.047C213.047 127.787 212.954 127.375 212.77 127.013C212.589 126.651 212.329 126.365 211.992 126.155C211.658 125.946 211.264 125.841 210.81 125.841C210.309 125.841 209.876 125.965 209.51 126.214C209.148 126.459 208.869 126.778 208.674 127.173C208.478 127.567 208.381 127.989 208.381 128.44V129.165C208.381 129.783 208.487 130.306 208.7 130.736C208.917 131.162 209.217 131.487 209.6 131.711C209.984 131.931 210.43 132.041 210.937 132.041C211.268 132.041 211.566 131.995 211.832 131.903C212.102 131.807 212.335 131.665 212.53 131.477C212.725 131.285 212.876 131.047 212.983 130.763L214.197 131.104C214.07 131.516 213.855 131.878 213.553 132.19C213.251 132.499 212.878 132.741 212.434 132.915C211.99 133.085 211.491 133.17 210.937 133.17ZM216.237 133V124.818H217.452V126.054H217.537C217.686 125.649 217.956 125.321 218.347 125.069C218.737 124.816 219.178 124.69 219.668 124.69C219.76 124.69 219.876 124.692 220.014 124.696C220.153 124.699 220.257 124.705 220.328 124.712V125.99C220.286 125.979 220.188 125.963 220.035 125.942C219.886 125.917 219.728 125.905 219.561 125.905C219.164 125.905 218.809 125.988 218.496 126.155C218.187 126.319 217.942 126.546 217.761 126.837C217.583 127.125 217.495 127.453 217.495 127.822V133H216.237ZM221.819 133V124.818H223.033V126.097H223.14C223.31 125.66 223.585 125.321 223.965 125.079C224.345 124.834 224.801 124.712 225.334 124.712C225.874 124.712 226.323 124.834 226.682 125.079C227.044 125.321 227.326 125.66 227.529 126.097H227.614C227.824 125.674 228.138 125.338 228.557 125.09C228.976 124.838 229.478 124.712 230.064 124.712C230.796 124.712 231.394 124.941 231.859 125.399C232.325 125.853 232.557 126.562 232.557 127.524V133H231.3V127.524C231.3 126.92 231.135 126.489 230.805 126.23C230.474 125.971 230.086 125.841 229.638 125.841C229.063 125.841 228.617 126.015 228.301 126.363C227.985 126.707 227.827 127.144 227.827 127.673V133H226.549V127.396C226.549 126.931 226.398 126.556 226.096 126.272C225.794 125.985 225.405 125.841 224.929 125.841C224.603 125.841 224.297 125.928 224.013 126.102C223.733 126.276 223.505 126.517 223.331 126.826C223.161 127.132 223.076 127.485 223.076 127.886V133H221.819ZM238.18 133.17C237.441 133.17 236.793 132.995 236.235 132.643C235.681 132.292 235.248 131.8 234.936 131.168C234.627 130.536 234.472 129.797 234.472 128.952C234.472 128.099 234.627 127.355 234.936 126.72C235.248 126.084 235.681 125.591 236.235 125.239C236.793 124.887 237.441 124.712 238.18 124.712C238.918 124.712 239.564 124.887 240.118 125.239C240.676 125.591 241.109 126.084 241.418 126.72C241.731 127.355 241.887 128.099 241.887 128.952C241.887 129.797 241.731 130.536 241.418 131.168C241.109 131.8 240.676 132.292 240.118 132.643C239.564 132.995 238.918 133.17 238.18 133.17ZM238.18 132.041C238.741 132.041 239.202 131.897 239.564 131.61C239.927 131.322 240.195 130.944 240.369 130.475C240.543 130.006 240.63 129.499 240.63 128.952C240.63 128.405 240.543 127.895 240.369 127.423C240.195 126.951 239.927 126.569 239.564 126.278C239.202 125.987 238.741 125.841 238.18 125.841C237.618 125.841 237.157 125.987 236.795 126.278C236.432 126.569 236.164 126.951 235.99 127.423C235.816 127.895 235.729 128.405 235.729 128.952C235.729 129.499 235.816 130.006 235.99 130.475C236.164 130.944 236.432 131.322 236.795 131.61C237.157 131.897 237.618 132.041 238.18 132.041ZM245.063 128.078V133H243.806V124.818H245.02V126.097H245.127C245.319 125.681 245.61 125.347 246 125.095C246.391 124.839 246.895 124.712 247.513 124.712C248.067 124.712 248.552 124.825 248.967 125.053C249.383 125.276 249.706 125.617 249.937 126.075C250.168 126.53 250.283 127.105 250.283 127.801V133H249.026V127.886C249.026 127.244 248.859 126.743 248.525 126.384C248.191 126.022 247.733 125.841 247.151 125.841C246.75 125.841 246.391 125.928 246.075 126.102C245.763 126.276 245.516 126.53 245.335 126.864C245.153 127.197 245.063 127.602 245.063 128.078Z" fill="black"/>
</g>
<defs>
<filter id="filter0_d_19_621" x="0" y="0" width="386" height="172" filterUnits="userSpaceOnUse" color-interpolation-filters="sRGB">
<feFlood flood-opacity="0" result="BackgroundImageFix"/>
<feColorMatrix in="SourceAlpha" type="matrix" values="0 0 0 0 0 0 0 0 0 0 0 0 0 0 0 0 0 0 127 0" result="hardAlpha"/>
<feMorphology radius="2" operator="dilate" in="SourceAlpha" result="effect1_dropShadow_19_621"/>
<feOffset dy="4"/>
<feGaussianBlur stdDeviation="2"/>
<feComposite in2="hardAlpha" operator="out"/>
<feColorMatrix type="matrix" values="0 0 0 0 0 0 0 0 0 0 0 0 0 0 0 0 0 0 0.02 0"/>
<feBlend mode="normal" in2="BackgroundImageFix" result="effect1_dropShadow_19_621"/>
<feBlend mode="normal" in="SourceGraphic" in2="effect1_dropShadow_19_621" result="shape"/>
</filter>
</defs>
</svg>
